<?xml version="1.0" standalone="no"?>
<!DOCTYPE svg PUBLIC "-//W3C//DTD SVG 1.1//EN" "http://www.w3.org/Graphics/SVG/1.1/DTD/svg11.dtd" >
<svg xmlns="http://www.w3.org/2000/svg" xmlns:xlink="http://www.w3.org/1999/xlink" version="1.1">
<metadata>
Created by FontForge 20170731 at Thu Jun 23 01:40:12 2016
 By Aleksey,,,
Copyright (c) 2015 Berton Hasebe, under exclusive license to Schwartzco Inc./ Commercial Type. All rights reserved.
</metadata>
<defs>
<font id="DrukCondensed-Super" horiz-adv-x="290" >
  <font-face 
    font-family="Druk Condensed"
    font-weight="950"
    font-stretch="extra-condensed"
    units-per-em="1000"
    panose-1="0 0 0 0 0 0 0 0 0 0"
    ascent="800"
    descent="-200"
    x-height="538"
    cap-height="744"
    bbox="-29 -211 822 983"
    underline-thickness="50"
    underline-position="-200"
    unicode-range="U+000D-FB04"
  />
<missing-glyph horiz-adv-x="492" 
d="M0 690h492v-690h-492v690zM443 94v503l-168 -252zM49 597v-503l168 251zM246 389l168 252h-335zM246 301l-167 -252h334z" />
    <glyph glyph-name="f_f" unicode="ff" horiz-adv-x="377" 
d="M167 0h-124v437h-38v101h38v140q0 32 19.5 49t46.5 17h92v-97h-23q-11 0 -11 -12v-97h44v140q0 32 19 49t46 17h96v-97h-26q-11 0 -11 -12v-97h37v-101h-37v-437h-124v437h-44v-437z" />
    <glyph glyph-name="fi" unicode="fi" horiz-adv-x="347" 
d="M203 744v-97h-25q-11 0 -11 -12v-97h35v-100h-35v-438h-123v438h-39v100h39v140q0 32 19 49t46 17h94zM338 668v-116h-123v116h123zM338 538v-538h-123v538h123z" />
    <glyph glyph-name="fl" unicode="fl" horiz-adv-x="347" 
d="M203 744v-97h-25q-11 0 -11 -12v-97h35v-100h-35v-438h-123v438h-39v100h39v140q0 32 19 49t46 17h94zM338 744v-744h-123v744h123z" />
    <glyph glyph-name=".notdef" horiz-adv-x="492" 
d="M0 690h492v-690h-492v690zM443 94v503l-168 -252zM49 597v-503l168 251zM246 389l168 252h-335zM246 301l-167 -252h334z" />
    <glyph glyph-name=".null" horiz-adv-x="0" 
 />
    <glyph glyph-name="nonmarkingreturn" horiz-adv-x="333" 
 />
    <glyph glyph-name="NULL" horiz-adv-x="0" 
 />
    <glyph glyph-name="NULL" horiz-adv-x="0" 
 />
    <glyph glyph-name="CR" unicode="&#xd;" horiz-adv-x="78" 
 />
    <glyph glyph-name="space" unicode=" " horiz-adv-x="78" 
 />
    <glyph glyph-name="exclam" unicode="!" horiz-adv-x="143" 
d="M6 744h131q0 -15 -16 -275.5t-16 -322.5h-68q0 63 -15.5 322.5t-15.5 275.5zM125 129v-129h-108v129h108z" />
    <glyph glyph-name="quotedbl" unicode="&#x22;" horiz-adv-x="191" 
d="M182 744v-158h-82v158h82zM89 744v-158h-80v158h80z" />
    <glyph glyph-name="numbersign" unicode="#" horiz-adv-x="257" 
d="M136 330l5 112h-19l-5 -112h19zM121 0l12 255h-20l-12 -255h-74l11 255h-34l4 75h34l5 112h-34l4 76h33l10 226h76l-11 -226h20l10 226h76l-11 -226h33l-4 -76h-32l-5 -112h32l-4 -75h-32l-12 -255h-75z" />
    <glyph glyph-name="dollar" unicode="$" horiz-adv-x="295" 
d="M122 635v-121q0 -27 13 -40v187q-13 -3 -13 -26zM170 117v142q0 32 -14 46v-215q14 3 14 27zM156 -7v-44h-21v44q-127 0 -127 112v200h114v-189q0 -22 13 -26v232l-62 48q-63 47 -63 132v134q0 115 125 115v40h21v-40q66 0 94.5 -26t28.5 -83v-164h-110v157q0 23 -13 26
v-204l66 -51q36 -27 50.5 -57.5t14.5 -76.5v-153q0 -60 -34 -93t-97 -33z" />
    <glyph glyph-name="percent" unicode="%" horiz-adv-x="399" 
d="M9 500v166q0 84 81 84h13q82 0 82 -84v-166q0 -41 -22 -62t-61 -21h-12q-81 0 -81 83zM271 744h71l-214 -744h-72zM105 487v193q0 11 -8 11t-8 -11v-193q0 -10 8 -10t8 10zM213 79v166q0 83 81 83h14q82 0 82 -83v-166q0 -41 -22 -62.5t-61 -21.5h-12q-82 0 -82 84z
M302 55q7 0 7 10v194q0 10 -7 10q-8 0 -8 -10v-194q0 -10 8 -10z" />
    <glyph glyph-name="ampersand" unicode="&#x26;" horiz-adv-x="356" 
d="M356 90l-24 -97q-65 0 -100 23q-31 -22 -79 -22q-146 0 -146 152v77q0 62 18.5 102t63.5 87l-7 20q-32 88 -32 147v70q0 46 26 74t82 28h17q103 0 103 -97v-75q0 -51 -19.5 -83.5t-68.5 -81.5l49 -193q2 39 0 224h100q0 -236 -34 -347q13 -6 51 -8zM156 657v-95
q0 -31 10 -70q13 33 13 67v98q0 16 -11 16q-12 0 -12 -16zM170 86q6 0 16 2l-65 227q-1 -35 -1 -120v-32q1 -77 50 -77z" />
    <glyph glyph-name="quotesingle" unicode="'" horiz-adv-x="99" 
d="M90 744v-158h-81v158h81z" />
    <glyph glyph-name="parenleft" unicode="(" horiz-adv-x="155" 
d="M10 350q0 261 75 448h70q-17 -69 -30 -192t-13 -254q0 -263 45 -456h-71q-76 197 -76 454z" />
    <glyph glyph-name="parenright" unicode=")" horiz-adv-x="156" 
d="M69 -104h-71q45 216 45 456q0 131 -13 254t-30 192h70q76 -190 76 -448q0 -254 -77 -454z" />
    <glyph glyph-name="asterisk" unicode="*" horiz-adv-x="182" 
d="M115 698l33 29l31 -51l-44 -16l44 -16l-31 -52l-33 31l7 -47h-63l9 47l-34 -30l-31 51l45 16l-45 16l29 51l35 -29l-8 46h63z" />
    <glyph glyph-name="plus" unicode="+" horiz-adv-x="232" 
d="M223 267h-68v-75h-78v75h-68v72h68v75h78v-75h68v-72z" />
    <glyph glyph-name="comma" unicode="," horiz-adv-x="125" 
d="M92 -80h-62q17 41 19 80h-40v129h107v-100q0 -53 -24 -109z" />
    <glyph glyph-name="hyphen" unicode="-" horiz-adv-x="144" 
d="M9 357h126v-114h-126v114z" />
    <glyph glyph-name="period" unicode="." horiz-adv-x="125" 
d="M116 128v-128h-107v128h107z" />
    <glyph glyph-name="slash" unicode="/" horiz-adv-x="168" 
d="M169 798l-93 -902h-83l93 902h83z" />
    <glyph glyph-name="zero" unicode="0" horiz-adv-x="306" 
d="M296 604v-467q0 -70 -35 -107t-98 -37h-19q-65 0 -99.5 37.5t-34.5 106.5v467q0 147 134 147h19q68 0 100.5 -39t32.5 -108zM166 125v495q0 20 -13 20q-12 0 -12 -20v-495q0 -19 12 -19q13 0 13 19z" />
    <glyph glyph-name="one" unicode="1" horiz-adv-x="195" 
d="M59 585h-53v105q65 0 70 54h108v-744h-125v585z" />
    <glyph glyph-name="two" unicode="2" horiz-adv-x="286" 
d="M137 653q-11 0 -11 -15v-145h-113v154q0 45 29 74.5t86 29.5h22q125 0 125 -113v-95q0 -47 -7.5 -77.5t-33.5 -79.5l-46 -83q-44 -73 -55 -99.5t-11 -55.5v-44h47v150h109v-254h-270v132q0 55 10.5 91.5t55.5 119.5l42 84q3 6 8.5 19t7 17t5 13t4.5 12.5t3 10t2.5 10.5
t1 9t0.5 11v109q0 15 -11 15z" />
    <glyph glyph-name="three" unicode="3" horiz-adv-x="286" 
d="M128 483h-114v164q0 46 29 74.5t88 28.5h17q123 0 123 -102v-162q0 -43 -35 -65q17 -8 29 -25.5t12 -41.5v-245q0 -56 -33.5 -86t-94.5 -30h-18q-65 0 -94 30t-29 75v212h120v-193q0 -13 12 -13q11 0 11 13v212q0 12 -11 12h-58v111h54q13 0 13 13v171q0 14 -11 14
q-10 0 -10 -14v-153z" />
    <glyph glyph-name="four" unicode="4" horiz-adv-x="281" 
d="M7 137v99q51 259 104 511h121v-494h42v-116h-42v-137h-121v137h-104zM111 253v228q-1 -23 -13 -102.5t-16 -125.5h29z" />
    <glyph glyph-name="five" unicode="5" horiz-adv-x="287" 
d="M129 353h-116v391h254v-108h-140v-127q38 43 75 43h6q33 0 51.5 -23.5t18.5 -56.5v-369q0 -49 -33 -79.5t-92 -30.5h-25q-61 0 -89.5 28.5t-28.5 72.5v206h119v-187q0 -14 11 -14t11 14v328q0 14 -11 14t-11 -14v-88z" />
    <glyph glyph-name="six" unicode="6" horiz-adv-x="305" 
d="M219 473h6q34 0 52.5 -23t18.5 -58v-276q0 -55 -35.5 -89t-95.5 -34h-24q-63 0 -97 33t-34 90v514q0 51 33 85.5t98 34.5h19q66 0 97 -32.5t31 -86.5v-139h-126v138q0 15 -11 15t-11 -15v-202q39 45 79 45zM140 359v-240q0 -17 13 -17t13 17v240q0 19 -12 19
q-14 0 -14 -19z" />
    <glyph glyph-name="seven" unicode="7" horiz-adv-x="267" 
d="M9 744h250v-89q-2 -48 -6.5 -92t-14 -115.5t-14.5 -112.5q-18 -156 -18 -273v-62h-149v54q0 130 34 255q52 191 58 238q5 39 5 97h-37v-151h-108v251z" />
    <glyph glyph-name="eight" unicode="8" horiz-adv-x="302" 
d="M288 639v-171q0 -49 -40 -74q45 -27 45 -75v-204q0 -61 -36 -91.5t-96 -30.5h-19q-133 0 -133 123v203q0 49 43 75q-38 23 -38 74v171q0 51 31.5 81t96.5 30h19q65 0 96 -30t31 -81zM163 448v184q0 17 -12 17q-13 0 -13 -17v-184q0 -16 14 -16q11 0 11 16zM163 118v210
q0 17 -12 17q-13 0 -13 -17v-210q0 -16 14 -16q11 0 11 16z" />
    <glyph glyph-name="nine" unicode="9" horiz-adv-x="304" 
d="M164 386v239q0 17 -12 17q-13 0 -13 -17v-239q0 -19 12 -19q13 0 13 19zM92 272h-6q-36 0 -56.5 24.5t-20.5 65.5v262q0 55 31 90.5t95 35.5h27q64 0 98 -33.5t34 -91.5v-510q0 -50 -33 -86t-97 -36h-21q-65 0 -96 31t-31 81v148h127v-139q0 -16 11 -16q10 0 10 16v203
q-31 -45 -72 -45z" />
    <glyph glyph-name="colon" unicode=":" horiz-adv-x="127" 
d="M117 440v-128h-107v128h107zM117 128v-128h-107v128h107z" />
    <glyph glyph-name="semicolon" unicode=";" horiz-adv-x="127" 
d="M117 440v-128h-107v128h107zM93 -80h-62q18 44 19 80h-40v128h107v-99q0 -48 -24 -109z" />
    <glyph glyph-name="less" unicode="&#x3c;" horiz-adv-x="201" 
d="M191 194l-182 72v73l182 72v-81l-94 -28l94 -27v-81z" />
    <glyph glyph-name="equal" unicode="=" horiz-adv-x="228" 
d="M10 376h208v-66h-208v66zM10 297h208v-67h-208v67z" />
    <glyph glyph-name="greater" unicode="&#x3e;" horiz-adv-x="201" 
d="M10 194v81l94 27l-94 28v81l182 -72v-73z" />
    <glyph glyph-name="question" unicode="?" horiz-adv-x="274" 
d="M171 145h-93v130q0 52 22 96l33 67q11 21 11 61v139q0 17 -12 17q-8 0 -9.5 -3.5t-1.5 -13.5v-180h-113v180q0 111 115 111h24q119 0 119 -109v-130q0 -39 -6 -62.5t-24 -53.5l-44 -72q-21 -35 -21 -75v-102zM178 129v-129h-107v129h107z" />
    <glyph glyph-name="at" unicode="@" horiz-adv-x="460" 
d="M357 24l40 -39q-21 -33 -64.5 -59t-105.5 -26h-1q-29 0 -56 5.5t-57 22.5t-52 44t-36.5 74t-14.5 108v274q0 118 60.5 187.5t163.5 69.5h1q98 0 156.5 -53t58.5 -165v-244q0 -108 -31.5 -148.5t-85.5 -40.5h-13q-57 0 -76 46q-31 -46 -69 -46h-2q-33 0 -52.5 25t-17.5 64
l8 342q2 36 19.5 56t42.5 20h3q41 0 71 -42l1 39h113l-14 -428q0 -16 9 -16q27 0 27 129v242q0 91 -40 127t-108 36h-1q-70 0 -112.5 -50t-42.5 -151v-273q0 -61 14.5 -103t39 -61t46.5 -26t47 -7h1q75 0 130 67zM236 122l8 329q1 16 -10 16q-9 0 -9 -16l-8 -328
q-1 -15 9 -15q8 0 10 14z" />
    <glyph glyph-name="A" unicode="A" horiz-adv-x="287" 
d="M152 243l-15 283l-15 -283h30zM165 0l-7 134h-43l-7 -134h-109l62 744h160l67 -744h-123z" />
    <glyph glyph-name="B" unicode="B" horiz-adv-x="304" 
d="M10 0v744h192q84 0 84 -94v-168q0 -33 -16 -53t-33 -25q21 -5 40 -26t19 -61v-204q0 -113 -95 -113h-191zM146 650h-9v-212h9q15 0 15 19v175q0 10 -3 14t-12 4zM149 346h-12v-249h12q15 0 15 19v210q0 20 -15 20z" />
    <glyph glyph-name="C" unicode="C" horiz-adv-x="299" 
d="M153 102q13 0 13 21v217h124v-220q0 -55 -31.5 -91t-94.5 -36h-20q-134 0 -134 139v484q0 62 32.5 98.5t100.5 36.5h21q64 0 95 -32t31 -89v-197h-124v193q0 19 -13 19t-13 -19v-503q0 -21 13 -21z" />
    <glyph glyph-name="D" unicode="D" horiz-adv-x="299" 
d="M10 0v744h181q98 0 98 -107v-524q0 -57 -26 -85t-70 -28h-183zM134 642v-537h12q15 0 15 25v489q0 23 -15 23h-12z" />
    <glyph glyph-name="E" unicode="E" horiz-adv-x="235" 
d="M10 744h214v-114h-90v-181h76v-118h-76v-215h93v-116h-217v744z" />
    <glyph glyph-name="F" unicode="F" horiz-adv-x="230" 
d="M10 0v744h212v-114h-88v-182h73l1 -117h-74v-331h-124z" />
    <glyph glyph-name="G" unicode="G" horiz-adv-x="306" 
d="M112 -7h-3q-48 0 -73.5 35t-25.5 88v506q0 57 32 93t102 36h17q70 0 100 -33.5t30 -85.5v-167h-122v162q0 19 -15 19q-14 0 -14 -19v-508q0 -23 18 -23t18 23v222h-26v97h146v-438h-85q-13 46 -13 47q-34 -54 -86 -54z" />
    <glyph glyph-name="H" unicode="H" horiz-adv-x="300" 
d="M10 0v744h127v-289h27v289h126v-744h-126v324h-27v-324h-127z" />
    <glyph glyph-name="I" unicode="I" horiz-adv-x="147" 
d="M137 744v-744h-127v744h127z" />
    <glyph glyph-name="J" unicode="J" horiz-adv-x="284" 
d="M8 321h115v-207q0 -13 11 -13h1q10 0 10 13v630h129v-637q0 -52 -30 -83t-92 -31h-34q-57 0 -83.5 30.5t-26.5 79.5v218z" />
    <glyph glyph-name="K" unicode="K" horiz-adv-x="304" 
d="M136 0h-126v744h126l-1 -268l42 268h126l-61 -337l64 -407h-132l-39 293z" />
    <glyph glyph-name="L" unicode="L" horiz-adv-x="224" 
d="M10 744h126l1 -626h80l-1 -118h-206v744z" />
    <glyph glyph-name="M" unicode="M" horiz-adv-x="350" 
d="M10 0v744h145l22 -361l22 361h141v-744h-106v416l-37 -416h-45l-38 416v-416h-104z" />
    <glyph glyph-name="N" unicode="N" horiz-adv-x="301" 
d="M10 744h128l49 -403l-1 403h105v-744h-117l-59 446l1 -446h-106v744z" />
    <glyph glyph-name="O" unicode="O" horiz-adv-x="310" 
d="M300 604v-467q0 -69 -35.5 -106.5t-98.5 -37.5h-21q-66 0 -100.5 37.5t-34.5 106.5v467q0 147 135 147h20q135 0 135 -147zM170 126v492q0 22 -15 22q-14 0 -14 -22v-492q0 -20 14 -20q15 0 15 20z" />
    <glyph glyph-name="P" unicode="P" horiz-adv-x="293" 
d="M196 308h-60v-308h-126v744h184q42 0 66.5 -23.5t24.5 -73.5v-240q0 -48 -25 -73.5t-64 -25.5zM136 648v-239h9q15 0 15 19v201q0 19 -15 19h-9z" />
    <glyph glyph-name="Q" unicode="Q" horiz-adv-x="310" 
d="M113 -125v121q-103 17 -103 141v467q0 147 135 147h20q135 0 135 -147v-467q0 -116 -92 -139l41 -123h-136zM170 126v492q0 22 -15 22q-14 0 -14 -22v-492q0 -20 14 -20q15 0 15 20z" />
    <glyph glyph-name="R" unicode="R" horiz-adv-x="298" 
d="M137 650v-217h10q14 0 14 17v183q0 17 -13 17h-11zM137 327v-327h-127v744h197q35 0 57 -22.5t22 -66.5v-175q0 -61 -45 -80q47 -20 47 -69v-295q0 -22 6 -33v-3h-125q-8 11 -8 31v279q0 17 -14 17h-10z" />
    <glyph glyph-name="S" unicode="S" horiz-adv-x="300" 
d="M161 -7h-29q-124 0 -124 115v195h124v-186q0 -20 13 -20q14 0 14 21v145q0 19 -4 29t-18 22l-65 56q-61 51 -61 133v132q0 116 127 116h29q120 0 120 -106v-164h-122v158q0 16 -13 16t-13 -16v-127q0 -23 20 -42l64 -56q39 -32 54 -62.5t15 -78.5v-148q0 -132 -131 -132z
" />
    <glyph glyph-name="T" unicode="T" horiz-adv-x="255" 
d="M65 0v630h-57v114h239v-114h-57v-630h-125z" />
    <glyph glyph-name="U" unicode="U" horiz-adv-x="306" 
d="M163 -8h-20q-68 0 -100.5 34.5t-32.5 88.5v629h130v-614q0 -19 13 -19q14 0 14 19v614h129v-629q0 -52 -34 -87.5t-99 -35.5z" />
    <glyph glyph-name="V" unicode="V" horiz-adv-x="308" 
d="M73 0l-74 744h136l25 -507l26 507h123l-67 -744h-169z" />
    <glyph glyph-name="W" unicode="W" horiz-adv-x="442" 
d="M206 0h-146l-61 744h131l15 -486l21 486h118l22 -489l15 489h122l-61 -744h-143l-16 424z" />
    <glyph glyph-name="X" unicode="X" horiz-adv-x="294" 
d="M123 0h-124l51 391l-48 353h129l18 -270l17 270h121l-46 -353l54 -391h-127l-23 294z" />
    <glyph glyph-name="Y" unicode="Y" horiz-adv-x="279" 
d="M80 0v293l-82 451h126l22 -257l22 257h113l-75 -451v-293h-126z" />
    <glyph glyph-name="Z" unicode="Z" horiz-adv-x="256" 
d="M11 744h233v-104l-101 -526h106v-114h-242v104l99 527h-95v113z" />
    <glyph glyph-name="bracketleft" unicode="[" horiz-adv-x="147" 
d="M10 -105v903h131v-83h-35v-737h35v-83h-131z" />
    <glyph glyph-name="backslash" unicode="\" horiz-adv-x="167" 
d="M92 -104l-93 902h82l93 -902h-82z" />
    <glyph glyph-name="bracketright" unicode="]" horiz-adv-x="147" 
d="M6 -105v83h35v737h-35v83h131v-903h-131z" />
    <glyph glyph-name="asciicircum" unicode="^" horiz-adv-x="191" 
d="M108 419l-13 189l-12 -189h-81l36 325h115l36 -325h-81z" />
    <glyph glyph-name="underscore" unicode="_" horiz-adv-x="276" 
d="M3 -99v80h270v-80h-270z" />
    <glyph glyph-name="grave" unicode="`" horiz-adv-x="219" 
d="M142 668l34 -116h-96l-37 116h99z" />
    <glyph glyph-name="a" unicode="a" horiz-adv-x="282" 
d="M145 93v181q-21 -12 -21 -36v-145q0 -14 11 -14q10 0 10 14zM7 68v167q0 57 50 81q29 14 79 33q9 5 9 14v91q0 13 -11 13h-1q-11 0 -11 -13v-102h-111v103q0 91 116 91h13q61 0 92.5 -20.5t31.5 -69.5v-352q0 -6 6 -6h9v-98h-103q-30 0 -30 44q-28 -49 -75 -49h-2
q-29 0 -45.5 21.5t-16.5 51.5z" />
    <glyph glyph-name="b" unicode="b" horiz-adv-x="289" 
d="M9 744h123v-252q35 49 78 49h4q32 0 49 -23.5t17 -60.5v-373q0 -36 -21 -63t-53 -27h-2q-48 0 -83 55q-5 -20 -7 -49h-105v744zM143 80q12 0 12 16v343q0 16 -11 16q-12 0 -12 -16v-342q0 -17 11 -17z" />
    <glyph glyph-name="c" unicode="c" horiz-adv-x="271" 
d="M152 -8h-26q-54 0 -85.5 27.5t-31.5 84.5v328q0 51 28 82.5t89 31.5h28q109 0 109 -101v-133h-111v136q0 13 -10 13t-10 -13v-353q0 -14 10 -14t10 14v154h111v-156q0 -46 -30 -73.5t-81 -27.5z" />
    <glyph glyph-name="d" unicode="d" 
d="M146 81q12 0 12 17v338q0 18 -12 18t-12 -17v-339q0 -17 12 -17zM158 744h123v-744h-122v42q-36 -49 -75 -49h-2q-32 0 -52.5 26.5t-20.5 65.5v371q0 37 19 61.5t48 24.5h4q41 0 78 -45v247z" />
    <glyph glyph-name="e" unicode="e" horiz-adv-x="277" 
d="M129 451v-120h24v120q0 12 -2 15.5t-10 3.5q-12 0 -12 -19zM269 234v-130q0 -53 -31 -82.5t-85 -29.5h-24q-120 0 -120 116v320q0 56 30.5 87t89.5 31h24q53 0 84.5 -28t31.5 -88v-169h-140v-168q0 -16 12 -16t12 16v141h116z" />
    <glyph glyph-name="f" unicode="f" horiz-adv-x="210" 
d="M205 744v-97h-27q-11 0 -11 -12v-97h38v-101h-38v-437h-123v437h-39v101h39v140q0 32 19 49t46 17h96z" />
    <glyph glyph-name="g" unicode="g" 
d="M146 79q12 0 12 16v343q0 16 -12 16t-12 -16v-343q0 -16 12 -16zM160 -172h-29q-116 0 -116 84v75h120v-60q0 -13 11 -13q12 0 12 14v113l-6 -7q-6 -7 -8.5 -9.5l-8.5 -8.5t-10.5 -8.5t-11.5 -6.5t-14.5 -5.5t-15.5 -1.5q-33 0 -53.5 23t-20.5 63v377q0 36 18 60.5
t51 24.5h4q37 0 77 -47v43h122v-610q0 -48 -31 -74t-90 -26z" />
    <glyph glyph-name="h" unicode="h" 
d="M9 0v744h123v-251q35 50 80 50h4q34 0 49.5 -21.5t15.5 -48.5v-473h-124v434q0 17 -13 17q-12 0 -12 -18v-433h-123z" />
    <glyph glyph-name="i" unicode="i" horiz-adv-x="141" 
d="M132 668v-116h-123v116h123zM132 538v-538h-123v538h123z" />
    <glyph glyph-name="j" unicode="j" horiz-adv-x="141" 
d="M132 668v-116h-123v116h123zM-26 -61h24q11 0 11 12v587h123v-647q0 -28 -15.5 -43t-38.5 -15h-104v106z" />
    <glyph glyph-name="k" unicode="k" horiz-adv-x="283" 
d="M132 0h-123v744h123v-381l30 175h116l-45 -227l51 -311h-120l-33 222z" />
    <glyph glyph-name="l" unicode="l" horiz-adv-x="141" 
d="M132 744v-744h-123v744h123z" />
    <glyph glyph-name="m" unicode="m" horiz-adv-x="434" 
d="M132 0h-123v538h121v-47q34 52 78 52h5q47 0 62 -50q33 50 81 50h5q33 0 48.5 -23t15.5 -48v-472h-125v434q0 16 -10 16q-12 0 -12 -16v-434h-124v434q0 16 -11 16t-11 -16v-434z" />
    <glyph glyph-name="n" unicode="n" 
d="M9 0v538h121v-47q37 52 82 52h5q34 0 49 -22t15 -48v-473h-124v434q0 17 -13 17q-12 0 -12 -18v-433h-123z" />
    <glyph glyph-name="o" unicode="o" horiz-adv-x="291" 
d="M155 -8h-20q-126 0 -126 131v293q0 130 127 130h20q126 0 126 -130v-293q0 -65 -33 -98t-94 -33zM145 85q13 0 13 18v334q0 19 -13 19q-12 0 -12 -19v-334q0 -18 12 -18z" />
    <glyph glyph-name="p" unicode="p" horiz-adv-x="289" 
d="M144 79q11 0 11 16v345q0 17 -11 17q-12 0 -12 -17v-345q0 -16 12 -16zM9 538h121v-48q40 53 81 53h2q67 0 67 -92v-369q0 -38 -21 -63.5t-51 -25.5h-2q-43 0 -74 46v-206h-123v705z" />
    <glyph glyph-name="q" unicode="q" horiz-adv-x="289" 
d="M186 538h94v-705h-122v209q-33 -48 -75 -48h-3q-30 0 -50.5 25.5t-20.5 64.5v360q0 46 20.5 72.5t58.5 26.5h5q46 0 83 -53q8 25 10 48zM146 79q12 0 12 21v341q0 18 -13 18q-11 0 -11 -16v-348q0 -16 12 -16z" />
    <glyph glyph-name="r" unicode="r" horiz-adv-x="265" 
d="M132 440v-440h-123v538h121v-47q32 50 70 50h7q25 0 38 -15t13 -38v-194h-108v146q0 12 -9 12t-9 -12z" />
    <glyph glyph-name="s" unicode="s" horiz-adv-x="261" 
d="M142 -8h-30q-105 0 -105 91v130h109v-125q0 -13 11 -13t11 13v99q0 23 -18 36l-53 36q-34 23 -45.5 48t-11.5 61v84q0 94 109 94h27q103 0 103 -82v-109h-106v103q0 14 -10 14q-11 0 -11 -14v-82q0 -12 3 -17.5t13 -14.5l55 -37q36 -27 48.5 -51.5t12.5 -62.5v-99
q0 -50 -29.5 -76t-82.5 -26z" />
    <glyph glyph-name="t" unicode="t" horiz-adv-x="208" 
d="M202 0h-116q-18 0 -30.5 12.5t-12.5 36.5v389h-38v100h38v172h123v-172h36v-100h-36v-324q0 -12 11 -12h25v-102z" />
    <glyph glyph-name="u" unicode="u" horiz-adv-x="289" 
d="M280 538v-538h-121v47q-39 -51 -82 -51h-4q-33 0 -48.5 22t-15.5 48v472h124v-434q0 -16 13 -16q11 0 11 17v433h123z" />
    <glyph glyph-name="v" unicode="v" horiz-adv-x="273" 
d="M57 0l-58 538h124l15 -363l15 363h121l-58 -538h-159z" />
    <glyph glyph-name="w" unicode="w" horiz-adv-x="411" 
d="M192 0h-136l-57 538h123l13 -351l16 351h111l18 -363l12 363h120l-57 -538h-134l-15 308z" />
    <glyph glyph-name="x" unicode="x" horiz-adv-x="270" 
d="M116 0h-117l49 287l-47 251h120l15 -168l13 168h119l-47 -248l50 -290h-121l-17 185z" />
    <glyph glyph-name="y" unicode="y" horiz-adv-x="271" 
d="M28 -167v100h38q10 0 10 11q0 1 0.5 10t0.5 13q0 15 -4 42l-74 529h122l18 -317l13 317h120l-84 -653q-10 -52 -57 -52h-103z" />
    <glyph glyph-name="z" unicode="z" horiz-adv-x="225" 
d="M9 538h207v-88l-78 -348h81v-102h-213v88l81 354h-78v96z" />
    <glyph glyph-name="braceleft" unicode="{" horiz-adv-x="158" 
d="M152 -104h-53q-80 0 -80 73q0 13 10 152t10 160q0 28 -25 28h-9v79h13q13 0 17 5.5t4 19.5q0 25 -10 156t-10 152q0 37 20.5 57t59.5 20h53v-80h-19q-22 0 -22 -22q0 -12 10 -139t10 -143q0 -50 -44 -65q24 -8 34 -21t10 -36q0 -18 -10 -144t-10 -141q0 -32 28 -32h13
v-79z" />
    <glyph glyph-name="bar" unicode="|" horiz-adv-x="143" 
d="M111 798v-902h-79v902h79z" />
    <glyph glyph-name="braceright" unicode="}" horiz-adv-x="157" 
d="M6 -104v79h13q28 0 28 32q0 15 -10 141t-10 144q0 44 44 56q-44 15 -44 66q0 16 10 143t10 139q0 22 -23 22h-18v80h52q81 0 81 -77q0 -20 -10 -152t-10 -156q0 -25 20 -25h13v-79h-9q-24 0 -24 -28q0 -21 10 -160t10 -152q0 -73 -81 -73h-52z" />
    <glyph glyph-name="asciitilde" unicode="~" horiz-adv-x="220" 
d="M160 286q-28 0 -54 21q-13 11 -17 11q-5 0 -5 -7v-28h-78v66q0 33 14.5 53t40.5 20q28 0 53 -22q14 -11 17 -11q6 0 6 9v27h77v-75q0 -29 -15 -46.5t-39 -17.5z" />
    <glyph glyph-name="nbspace" unicode="&#xa0;" horiz-adv-x="78" 
 />
    <glyph glyph-name="exclamdown" unicode="&#xa1;" horiz-adv-x="143" 
d="M135 -206h-131q0 15 16 275.5t16 322.5h68q0 -63 15.5 -322.5t15.5 -275.5zM16 409v129h108v-129h-108z" />
    <glyph glyph-name="cent" unicode="&#xa2;" horiz-adv-x="273" 
d="M152 -52h-20v44h-9q-52 0 -83 27t-31 84v330q0 51 28 82t86 31h9v43h20v-43h5q108 0 108 -99v-135h-99v129q0 21 -14 24v-386q14 3 14 24v146h99v-157q0 -46 -30 -73t-80 -27h-3v-44zM119 441v-338q0 -21 13 -24v386q-13 -3 -13 -24z" />
    <glyph glyph-name="sterling" unicode="&#xa3;" horiz-adv-x="321" 
d="M311 285v-285h-303v98h11q19 3 29 16.5t10 48.5v4q0 24 -6 142h-44v95h39q-6 128 -6 191v33q0 123 132 123h10q121 0 121 -111v-213h-112v207q0 17 -13 17t-13 -17v-3q0 -16 1 -96t1 -131h84v-95h-84q1 -43 1 -108q0 -72 -29 -101h60v185h111z" />
    <glyph glyph-name="yen" unicode="&#xa5;" horiz-adv-x="277" 
d="M79 0v244h-60v66h60v12h-60v65h53l-74 357h125l21 -221l1 -49l2 49l21 221h111l-68 -357h55v-65h-61v-12h61v-66h-61v-244h-126z" />
    <glyph glyph-name="brokenbar" unicode="&#xa6;" horiz-adv-x="143" 
d="M111 798v-431h-79v431h79zM111 347v-451h-79v451h79z" />
    <glyph glyph-name="section" unicode="&#xa7;" horiz-adv-x="321" 
d="M125 324l79 -105q5 8 5 17q0 13 -17 35l-78 104q-5 -8 -5 -17q0 -11 16 -34zM167 -172h-27q-58 0 -85 25t-27 82v143h115v-145q0 -15 12 -15t12 15v98q0 22 -3.5 33t-15.5 28l-99 120q-26 31 -36 56t-10 61v10q0 70 71 93l-7 12q-34 50 -34 111v90q0 50 29 78t88 28h31
q110 0 110 -99v-128h-114v121q0 16 -11 16t-11 -16v-80q0 -32 18 -59l102 -138q24 -33 33.5 -54t9.5 -49v-10q0 -42 -18 -64t-53 -34l6 -9q22 -30 29 -49.5t7 -55.5v-102q0 -55 -31.5 -84t-90.5 -29z" />
    <glyph glyph-name="dieresis" unicode="&#xa8;" horiz-adv-x="219" 
d="M206 647v-95h-89v95h89zM102 647v-95h-89v95h89z" />
    <glyph glyph-name="copyright" unicode="&#xa9;" horiz-adv-x="387" 
d="M198 -7h-7q-85 0 -133 43.5t-48 134.5v404q0 86 49.5 131t132.5 45h7q82 0 130 -44t48 -132v-404q0 -88 -50.5 -133t-128.5 -45zM68 560v-376q0 -143 125 -143h5q122 0 122 143v376q0 143 -121 143h-6q-62 0 -93.5 -34t-31.5 -109zM188 587v-424q0 -16 9 -16t9 16v195h90
v-199q0 -38 -24 -63.5t-69 -25.5h-10q-101 0 -101 98v410q0 46 25 71.5t74 25.5h12q45 0 69 -22.5t24 -62.5v-162h-90v159q0 13 -9 13t-9 -13z" />
    <glyph glyph-name="ordfeminine" unicode="&#xaa;" horiz-adv-x="177" 
d="M78 567v-77q0 -8 7 -8t7 9v97q-14 -6 -14 -21zM92 461q-18 -29 -45 -29h-2q-18 0 -28 12.5t-10 31.5v89q0 34 32 49q4 2 47 18q6 2 6 9v51q0 8 -8 8q-7 0 -7 -8v-57h-67v60q0 53 70 53h8q39 0 57.5 -12t18.5 -41v-198q0 -5 4 -5h5v-57h-63q-18 0 -18 26z" />
    <glyph glyph-name="guillemotleft" unicode="&#xab;" horiz-adv-x="236" 
d="M198 279l30 -150h-86l-36 150l37 147h87zM93 279l36 -150h-87l-35 127v47l35 123h88z" />
    <glyph glyph-name="registered" unicode="&#xae;" horiz-adv-x="217" 
d="M113 418h-8q-97 0 -97 97v137q0 47 25.5 71.5t71.5 24.5h10q94 0 94 -94v-139q0 -47 -26.5 -72t-69.5 -25zM41 652v-137q0 -70 64 -70h8q64 0 64 70v139q0 68 -62 68h-10q-34 0 -49 -16t-15 -54zM104 670v-66h5q6 0 6 7v52q0 7 -6 7h-5zM104 570v-103h-44v235h66
q34 0 34 -30v-55q0 -19 -15 -25q15 -6 15 -21v-91q0 -7 3 -10v-3h-44l-2 4q-2 4 -2 7v84q0 8 -6 8h-5z" />
    <glyph glyph-name="macron" unicode="&#xaf;" horiz-adv-x="219" 
d="M27 557v78h165v-78h-165z" />
    <glyph glyph-name="degree" unicode="&#xb0;" horiz-adv-x="166" 
d="M6 674q0 33 21 53t57 20q34 0 55 -20.5t21 -52.5q0 -31 -21.5 -52t-54.5 -21q-35 0 -56.5 21t-21.5 52zM56 674q0 -27 27 -27t27 27q0 28 -27 28t-27 -28z" />
    <glyph glyph-name="acute" unicode="&#xb4;" horiz-adv-x="219" 
d="M43 552l35 116h99l-38 -116h-96z" />
    <glyph glyph-name="paragraph" unicode="&#xb6;" horiz-adv-x="304" 
d="M102 0v357h-4q-37 0 -63.5 23.5t-26.5 73.5v190q0 50 24 75t66 25h201v-82h-26v-662h-75v662h-20v-662h-76z" />
    <glyph glyph-name="periodcentered" unicode="&#xb7;" horiz-adv-x="125" 
d="M116 380v-129h-107v129h107z" />
    <glyph glyph-name="cedilla" unicode="&#xb8;" horiz-adv-x="219" 
d="M45 -141v53h42q14 0 14 10q0 9 -14 9h-33v69h52v-23h4q32 0 48.5 -15t16.5 -40v-2q0 -28 -18 -44.5t-53 -16.5h-59z" />
    <glyph glyph-name="ordmasculine" unicode="&#xba;" horiz-adv-x="179" 
d="M96 430h-12q-36 0 -56 18t-20 53v175q0 72 76 72h12q75 0 75 -72v-175q0 -71 -75 -71zM90 484q7 0 7 11v187q0 12 -7 12t-7 -12v-187q0 -11 7 -11z" />
    <glyph glyph-name="guillemotright" unicode="&#xbb;" horiz-adv-x="236" 
d="M7 129l31 149l-32 148h87l36 -148l-35 -149h-87zM106 129l36 149l-36 148h87l36 -124v-47l-36 -126h-87z" />
    <glyph glyph-name="onequarter" unicode="&#xbc;" horiz-adv-x="309" 
d="M33 656h-28v62q34 0 36 26h72v-343h-79zM219 744h71l-209 -744h-70zM146 53v57l54 234h86v-225h21v-66h-21v-53h-76v53h-64zM194 119h16v122z" />
    <glyph glyph-name="onehalf" unicode="&#xbd;" horiz-adv-x="349" 
d="M33 656h-28v62q34 0 36 26h72v-343h-79zM219 744h71l-209 -744h-70zM344 0h-174v52q0 36 10.5 58t48.5 73q29 47 31 60q1 6 1 14v24q0 10 -7 10t-7 -10v-56h-74v53q0 69 75 69h12q82 0 82 -66v-23q0 -32 -10.5 -50.5t-45.5 -57.5q-31 -37 -37 -47.5t-6 -28.5v-15h32v62
h69v-121z" />
    <glyph glyph-name="threequarters" unicode="&#xbe;" horiz-adv-x="360" 
d="M80 624h-73v64q0 60 75 60h10q81 0 81 -59v-57q0 -30 -27 -40q32 -11 32 -47v-77q0 -72 -84 -72h-11q-77 0 -77 65v79h76v-75q0 -9 7 -9q6 0 6 9v81q0 7 -7 7h-35v59h34q7 0 7 7v67q0 8 -7 8t-7 -8v-62zM269 744h71l-209 -744h-70zM197 53v57l54 234h86v-225h21v-66h-21
v-53h-76v53h-64zM245 119h16v122z" />
    <glyph glyph-name="questiondown" unicode="&#xbf;" horiz-adv-x="274" 
d="M101 393h93v-130q0 -52 -22 -96l-33 -67q-11 -21 -11 -61v-139q0 -17 12 -17q8 0 9.5 3.5t1.5 13.5v180h113v-180q0 -111 -115 -111h-24q-119 0 -119 109v130q0 39 6 62.5t24 53.5l44 72q21 35 21 75v102zM94 409v129h107v-129h-107z" />
    <glyph glyph-name="Agrave" unicode="&#xc0;" horiz-adv-x="287" 
d="M152 243l-15 283l-15 -283h30zM165 0l-7 134h-43l-7 -134h-109l62 744h160l67 -744h-123zM159 853l35 -95h-99l-38 95h102z" />
    <glyph glyph-name="Aacute" unicode="&#xc1;" horiz-adv-x="287" 
d="M152 243l-15 283l-15 -283h30zM165 0l-7 134h-43l-7 -134h-109l62 744h160l67 -744h-123zM91 758l37 95h102l-40 -95h-99z" />
    <glyph glyph-name="Acircumflex" unicode="&#xc2;" horiz-adv-x="287" 
d="M152 243l-15 283l-15 -283h30zM165 0l-7 134h-43l-7 -134h-109l62 744h160l67 -744h-123zM192 853l50 -95h-85l-17 37l-16 -37h-85l50 95h103z" />
    <glyph glyph-name="Atilde" unicode="&#xc3;" horiz-adv-x="287" 
d="M152 243l-15 283l-15 -283h30zM165 0l-7 134h-43l-7 -134h-109l62 744h160l67 -744h-123zM141 839q21 -8 24 -8q5 0 5 8v16h65v-44q0 -52 -43 -52h-2q-16 0 -49 13l-24 8q-6 0 -6 -8v-15h-64v46q0 50 44 50h1q14 0 49 -14z" />
    <glyph glyph-name="Adieresis" unicode="&#xc4;" horiz-adv-x="287" 
d="M152 243l-15 283l-15 -283h30zM165 0l-7 134h-43l-7 -134h-109l62 744h160l67 -744h-123zM133 851v-93h-89v93h89zM238 851v-93h-90v93h90z" />
    <glyph glyph-name="Aring" unicode="&#xc5;" horiz-adv-x="287" 
d="M152 243l-15 283l-15 -283h30zM165 0l-7 134h-43l-7 -134h-109l62 744h160l67 -744h-123zM75 818q0 27 19 44.5t47 17.5t46.5 -17.5t18.5 -44.5q0 -29 -18.5 -46t-46.5 -17t-47 17t-19 46zM141 843q-11 0 -18.5 -7.5t-7.5 -18.5t7.5 -18.5t18.5 -7.5t18 7.5t7 18.5
t-7 18.5t-18 7.5z" />
    <glyph glyph-name="AE" unicode="&#xc6;" horiz-adv-x="378" 
d="M167 227v334l-29 -334h29zM167 0v118h-39l-10 -118h-121l88 744h283v-114h-77v-181h63v-118h-63v-215h80v-116h-204z" />
    <glyph glyph-name="Ccedilla" unicode="&#xc7;" horiz-adv-x="299" 
d="M153 102q13 0 13 21v217h124v-220q0 -55 -31.5 -91t-94.5 -36h-20q-134 0 -134 139v484q0 62 32.5 98.5t100.5 36.5h21q64 0 95 -32t31 -89v-197h-124v193q0 19 -13 19t-13 -19v-503q0 -21 13 -21zM99 -141v53h42q14 0 14 10q0 9 -14 9h-33v69h52v-23h4q32 0 48.5 -15
t16.5 -40v-2q0 -28 -18 -44.5t-53 -16.5h-59z" />
    <glyph glyph-name="Egrave" unicode="&#xc8;" horiz-adv-x="235" 
d="M137 853l35 -95h-99l-38 95h102zM10 744h214v-114h-90v-181h76v-118h-76v-215h93v-116h-217v744z" />
    <glyph glyph-name="Eacute" unicode="&#xc9;" horiz-adv-x="235" 
d="M70 758l37 95h102l-40 -95h-99zM10 744h214v-114h-90v-181h76v-118h-76v-215h93v-116h-217v744z" />
    <glyph glyph-name="Ecircumflex" unicode="&#xca;" horiz-adv-x="235" 
d="M170 853l50 -95h-85l-17 37l-16 -37h-85l50 95h103zM10 744h214v-114h-90v-181h76v-118h-76v-215h93v-116h-217v744z" />
    <glyph glyph-name="Edieresis" unicode="&#xcb;" horiz-adv-x="235" 
d="M10 744h214v-114h-90v-181h76v-118h-76v-215h93v-116h-217v744zM111 851v-93h-89v93h89zM216 851v-93h-90v93h90z" />
    <glyph glyph-name="Igrave" unicode="&#xcc;" horiz-adv-x="147" 
d="M137 744v-744h-127v744h127zM88 853l35 -95h-99l-38 95h102z" />
    <glyph glyph-name="Iacute" unicode="&#xcd;" horiz-adv-x="147" 
d="M137 744v-744h-127v744h127zM23 758l37 95h102l-40 -95h-99z" />
    <glyph glyph-name="Icircumflex" unicode="&#xce;" horiz-adv-x="147" 
d="M137 744v-744h-127v744h127zM124 853l50 -95h-85l-17 37l-16 -37h-85l50 95h103z" />
    <glyph glyph-name="Idieresis" unicode="&#xcf;" horiz-adv-x="147" 
d="M137 744v-744h-127v744h127zM65 851v-93h-89v93h89zM170 851v-93h-90v93h90z" />
    <glyph glyph-name="Eth" unicode="&#xd0;" horiz-adv-x="304" 
d="M15 0v328h-14v109h14v307h181q98 0 98 -107v-524q0 -57 -26 -85t-70 -28h-183zM139 642v-205h20v-109h-20v-223h12q15 0 15 25v489q0 23 -15 23h-12z" />
    <glyph glyph-name="Ntilde" unicode="&#xd1;" horiz-adv-x="301" 
d="M157 839q21 -8 24 -8q5 0 5 8v16h65v-44q0 -52 -43 -52h-2q-16 0 -49 13l-24 8q-6 0 -6 -8v-15h-64v46q0 50 44 50h1q14 0 49 -14zM10 744h128l49 -403l-1 403h105v-744h-117l-59 446l1 -446h-106v744z" />
    <glyph glyph-name="Ograve" unicode="&#xd2;" horiz-adv-x="310" 
d="M171 853l34 -92h-99l-37 92h102zM300 604v-467q0 -69 -35.5 -106.5t-98.5 -37.5h-21q-66 0 -100.5 37.5t-34.5 106.5v467q0 147 135 147h20q135 0 135 -147zM170 126v492q0 22 -15 22q-14 0 -14 -22v-492q0 -20 14 -20q15 0 15 20z" />
    <glyph glyph-name="Oacute" unicode="&#xd3;" horiz-adv-x="310" 
d="M106 761l36 92h102l-39 -92h-99zM300 604v-467q0 -69 -35.5 -106.5t-98.5 -37.5h-21q-66 0 -100.5 37.5t-34.5 106.5v467q0 147 135 147h20q135 0 135 -147zM170 126v492q0 22 -15 22q-14 0 -14 -22v-492q0 -20 14 -20q15 0 15 20z" />
    <glyph glyph-name="Ocircumflex" unicode="&#xd4;" horiz-adv-x="310" 
d="M209 853l48 -92h-86l-17 35l-16 -35h-85l47 92h109zM300 604v-467q0 -69 -35.5 -106.5t-98.5 -37.5h-21q-66 0 -100.5 37.5t-34.5 106.5v467q0 147 135 147h20q135 0 135 -147zM170 126v492q0 22 -15 22q-14 0 -14 -22v-492q0 -20 14 -20q15 0 15 20z" />
    <glyph glyph-name="Otilde" unicode="&#xd5;" horiz-adv-x="310" 
d="M156 843q21 -8 24 -8q5 0 5 8v16h65v-44q0 -52 -43 -52h-2q-17 0 -49 13l-24 8q-6 0 -6 -8v-15h-64v46q0 50 44 50h1q14 0 49 -14zM300 604v-467q0 -69 -35.5 -106.5t-98.5 -37.5h-21q-66 0 -100.5 37.5t-34.5 106.5v467q0 147 135 147h20q135 0 135 -147zM170 126v492
q0 22 -15 22q-14 0 -14 -22v-492q0 -20 14 -20q15 0 15 20z" />
    <glyph glyph-name="Odieresis" unicode="&#xd6;" horiz-adv-x="310" 
d="M253 851v-90h-90v90h90zM148 851v-90h-90v90h90zM300 604v-467q0 -69 -35.5 -106.5t-98.5 -37.5h-21q-66 0 -100.5 37.5t-34.5 106.5v467q0 147 135 147h20q135 0 135 -147zM170 126v492q0 22 -15 22q-14 0 -14 -22v-492q0 -20 14 -20q15 0 15 20z" />
    <glyph glyph-name="multiply" unicode="&#xd7;" horiz-adv-x="216" 
d="M160 201l-52 52l-52 -52l-50 50l52 53l-52 52l50 51l52 -53l52 53l50 -51l-52 -52l52 -53z" />
    <glyph glyph-name="Oslash" unicode="&#xd8;" horiz-adv-x="308" 
d="M163 -7h-16q-45 0 -74 22l-9 -20h-57l24 59q-21 37 -21 83v469q0 68 33.5 106.5t101.5 38.5h16q43 0 72 -19l7 17h58l-23 -53q23 -35 23 -89v-472q0 -68 -36 -105t-99 -37zM138 535l-3 -164l36 182v65q0 23 -17 23q-16 0 -16 -23v-83zM154 105q17 0 17 22v83l2 176
l-35 -177v-82q0 -22 16 -22z" />
    <glyph glyph-name="Ugrave" unicode="&#xd9;" horiz-adv-x="306" 
d="M170 853l35 -95h-99l-38 95h102zM163 -8h-20q-68 0 -100.5 34.5t-32.5 88.5v629h130v-614q0 -19 13 -19q14 0 14 19v614h129v-629q0 -52 -34 -87.5t-99 -35.5z" />
    <glyph glyph-name="Uacute" unicode="&#xda;" horiz-adv-x="306" 
d="M103 758l37 95h102l-40 -95h-99zM163 -8h-20q-68 0 -100.5 34.5t-32.5 88.5v629h130v-614q0 -19 13 -19q14 0 14 19v614h129v-629q0 -52 -34 -87.5t-99 -35.5z" />
    <glyph glyph-name="Ucircumflex" unicode="&#xdb;" horiz-adv-x="306" 
d="M204 853l50 -95h-85l-17 37l-16 -37h-85l50 95h103zM163 -8h-20q-68 0 -100.5 34.5t-32.5 88.5v629h130v-614q0 -19 13 -19q14 0 14 19v614h129v-629q0 -52 -34 -87.5t-99 -35.5z" />
    <glyph glyph-name="Udieresis" unicode="&#xdc;" horiz-adv-x="306" 
d="M163 -8h-20q-68 0 -100.5 34.5t-32.5 88.5v629h130v-614q0 -19 13 -19q14 0 14 19v614h129v-629q0 -52 -34 -87.5t-99 -35.5zM145 851v-93h-89v93h89zM250 851v-93h-90v93h90z" />
    <glyph glyph-name="Yacute" unicode="&#xdd;" horiz-adv-x="279" 
d="M80 0v293l-82 451h126l22 -257l22 257h113l-75 -451v-293h-126zM96 758l37 95h102l-40 -95h-99z" />
    <glyph glyph-name="Thorn" unicode="&#xde;" horiz-adv-x="293" 
d="M194 167h-58v-167h-126v744h126v-134h58q91 0 91 -97v-249q0 -47 -25 -72t-66 -25zM136 516v-251h10q15 0 15 19v214q0 18 -15 18h-10z" />
    <glyph glyph-name="germandbls" unicode="&#xdf;" horiz-adv-x="292" 
d="M231 456q22 -6 38 -25.5t16 -48.5v-295q0 -39 -22 -63t-58 -24h-63v94h7q7 0 7 10v268q0 11 -8 11h-6v94h6q8 0 8 9v154q0 17 -11 17h-2q-11 0 -11 -17v-640h-123v639q0 49 29 80t90 31h32q59 0 88 -26t29 -66v-127q0 -28 -14 -47.5t-32 -27.5z" />
    <glyph glyph-name="agrave" unicode="&#xe0;" horiz-adv-x="282" 
d="M150 668l33 -113h-96l-37 113h100zM145 93v181q-21 -12 -21 -36v-145q0 -14 11 -14q10 0 10 14zM7 68v167q0 57 50 81q29 14 79 33q9 5 9 14v91q0 13 -11 13h-1q-11 0 -11 -13v-102h-111v103q0 91 116 91h13q61 0 92.5 -20.5t31.5 -69.5v-352q0 -6 6 -6h9v-98h-103
q-30 0 -30 44q-28 -49 -75 -49h-2q-29 0 -45.5 21.5t-16.5 51.5z" />
    <glyph glyph-name="aacute" unicode="&#xe1;" horiz-adv-x="282" 
d="M87 555l34 113h99l-37 -113h-96zM145 93v181q-21 -12 -21 -36v-145q0 -14 11 -14q10 0 10 14zM7 68v167q0 57 50 81q29 14 79 33q9 5 9 14v91q0 13 -11 13h-1q-11 0 -11 -13v-102h-111v103q0 91 116 91h13q61 0 92.5 -20.5t31.5 -69.5v-352q0 -6 6 -6h9v-98h-103
q-30 0 -30 44q-28 -49 -75 -49h-2q-29 0 -45.5 21.5t-16.5 51.5z" />
    <glyph glyph-name="acircumflex" unicode="&#xe2;" horiz-adv-x="282" 
d="M185 668l48 -113h-83l-16 51l-15 -51h-82l48 113h100zM145 93v181q-21 -12 -21 -36v-145q0 -14 11 -14q10 0 10 14zM7 68v167q0 57 50 81q29 14 79 33q9 5 9 14v91q0 13 -11 13h-1q-11 0 -11 -13v-102h-111v103q0 91 116 91h13q61 0 92.5 -20.5t31.5 -69.5v-352
q0 -6 6 -6h9v-98h-103q-30 0 -30 44q-28 -49 -75 -49h-2q-29 0 -45.5 21.5t-16.5 51.5z" />
    <glyph glyph-name="atilde" unicode="&#xe3;" horiz-adv-x="282" 
d="M145 93v181q-21 -12 -21 -36v-145q0 -14 11 -14q10 0 10 14zM7 68v167q0 57 50 81q29 14 79 33q9 5 9 14v91q0 13 -11 13h-1q-11 0 -11 -13v-102h-111v103q0 91 116 91h13q61 0 92.5 -20.5t31.5 -69.5v-352q0 -6 6 -6h9v-98h-103q-30 0 -30 44q-28 -49 -75 -49h-2
q-29 0 -45.5 21.5t-16.5 51.5zM163 660h65v-53q0 -50 -45 -50h-2q-20 0 -46 15q-16 10 -21 10t-5 -8v-19h-66v53q0 23 12 36.5t34 13.5h2q19 0 45 -14q17 -11 22 -11t5 8v19z" />
    <glyph glyph-name="adieresis" unicode="&#xe4;" horiz-adv-x="282" 
d="M231 650v-95h-89v95h89zM127 650v-95h-89v95h89zM145 93v181q-21 -12 -21 -36v-145q0 -14 11 -14q10 0 10 14zM7 68v167q0 57 50 81q29 14 79 33q9 5 9 14v91q0 13 -11 13h-1q-11 0 -11 -13v-102h-111v103q0 91 116 91h13q61 0 92.5 -20.5t31.5 -69.5v-352q0 -6 6 -6h9
v-98h-103q-30 0 -30 44q-28 -49 -75 -49h-2q-29 0 -45.5 21.5t-16.5 51.5z" />
    <glyph glyph-name="aring" unicode="&#xe5;" horiz-adv-x="282" 
d="M145 93v181q-21 -12 -21 -36v-145q0 -14 11 -14q10 0 10 14zM7 68v167q0 57 50 81q29 14 79 33q9 5 9 14v91q0 13 -11 13h-1q-11 0 -11 -13v-102h-111v103q0 91 116 91h13q61 0 92.5 -20.5t31.5 -69.5v-352q0 -6 6 -6h9v-98h-103q-30 0 -30 44q-28 -49 -75 -49h-2
q-29 0 -45.5 21.5t-16.5 51.5zM200 617q0 -28 -18.5 -45.5t-46.5 -17.5t-47 18t-19 45t19 44.5t47 17.5t46.5 -17.5t18.5 -44.5zM109 617q0 -12 7.5 -19t18.5 -7q25 0 25 26q0 25 -25 25q-11 0 -18.5 -7t-7.5 -18z" />
    <glyph glyph-name="ae" unicode="&#xe6;" horiz-adv-x="413" 
d="M266 451v-118h23v118q0 12 -2 15.5t-10 3.5q-11 0 -11 -19zM405 236v-132q0 -53 -31 -82.5t-85 -29.5h-24q-82 0 -106 54q-36 -51 -85 -51h-2q-31 0 -48 21.5t-17 51.5v155q0 31 12 49.5t38 31.5q34 17 79 33q9 5 9 14v103q0 13 -11 13h-1q-11 0 -11 -13v-114h-111v115
q0 91 114 91h10q51 0 75 -21q21 21 66 21h11q118 0 118 -117v-166h-139v-170q0 -16 11 -16q12 0 12 16v143h116zM145 93v170q-13 -9 -17 -15.5t-4 -20.5v-134q0 -14 11 -14q10 0 10 14z" />
    <glyph glyph-name="ccedilla" unicode="&#xe7;" horiz-adv-x="271" 
d="M152 -8h-26q-54 0 -85.5 27.5t-31.5 84.5v328q0 51 28 82.5t89 31.5h28q109 0 109 -101v-133h-111v136q0 13 -10 13t-10 -13v-353q0 -14 10 -14t10 14v154h111v-156q0 -46 -30 -73.5t-81 -27.5zM80 -141v53h42q14 0 14 10q0 9 -14 9h-33v69h52v-23h4q32 0 48.5 -15
t16.5 -40v-2q0 -28 -18 -44.5t-53 -16.5h-59z" />
    <glyph glyph-name="egrave" unicode="&#xe8;" horiz-adv-x="277" 
d="M155 668l33 -112h-95l-37 112h99zM129 451v-120h24v120q0 12 -2 15.5t-10 3.5q-12 0 -12 -19zM269 234v-130q0 -53 -31 -82.5t-85 -29.5h-24q-120 0 -120 116v320q0 56 30.5 87t89.5 31h24q53 0 84.5 -28t31.5 -88v-169h-140v-168q0 -16 12 -16t12 16v141h116z" />
    <glyph glyph-name="eacute" unicode="&#xe9;" horiz-adv-x="277" 
d="M92 556l34 112h99l-37 -112h-96zM129 451v-120h24v120q0 12 -2 15.5t-10 3.5q-12 0 -12 -19zM269 234v-130q0 -53 -31 -82.5t-85 -29.5h-24q-120 0 -120 116v320q0 56 30.5 87t89.5 31h24q53 0 84.5 -28t31.5 -88v-169h-140v-168q0 -16 12 -16t12 16v141h116z" />
    <glyph glyph-name="ecircumflex" unicode="&#xea;" horiz-adv-x="277" 
d="M190 668l47 -112h-82l-16 50l-15 -50h-82l48 112h100zM129 451v-120h24v120q0 12 -2 15.5t-10 3.5q-12 0 -12 -19zM269 234v-130q0 -53 -31 -82.5t-85 -29.5h-24q-120 0 -120 116v320q0 56 30.5 87t89.5 31h24q53 0 84.5 -28t31.5 -88v-169h-140v-168q0 -16 12 -16t12 16
v141h116z" />
    <glyph glyph-name="edieresis" unicode="&#xeb;" horiz-adv-x="277" 
d="M236 650v-94h-89v94h89zM132 650v-94h-89v94h89zM129 451v-120h24v120q0 12 -2 15.5t-10 3.5q-12 0 -12 -19zM269 234v-130q0 -53 -31 -82.5t-85 -29.5h-24q-120 0 -120 116v320q0 56 30.5 87t89.5 31h24q53 0 84.5 -28t31.5 -88v-169h-140v-168q0 -16 12 -16t12 16v141
h116z" />
    <glyph glyph-name="igrave" unicode="&#xec;" horiz-adv-x="141" 
d="M132 538v-538h-123v538h123zM86 668l34 -116h-96l-37 116h99z" />
    <glyph glyph-name="iacute" unicode="&#xed;" horiz-adv-x="141" 
d="M23 552l35 116h99l-38 -116h-96zM132 538v-538h-123v538h123z" />
    <glyph glyph-name="icircumflex" unicode="&#xee;" horiz-adv-x="141" 
d="M121 668l32 -116h-71l-12 57l-12 -57h-71l33 116h101zM132 538v-538h-123v538h123z" />
    <glyph glyph-name="idieresis" unicode="&#xef;" horiz-adv-x="141" 
d="M152 648v-96h-76v96h76zM65 648v-96h-77v96h77zM132 538v-538h-123v538h123z" />
    <glyph glyph-name="eth" unicode="&#xf0;" horiz-adv-x="288" 
d="M148 -8h-11q-67 0 -97.5 29.5t-30.5 88.5v326q0 47 18 75.5t52 28.5h4q38 0 72 -34l-37 86l-71 -38v70l47 25l-40 95h123l17 -41l54 29v-71l-30 -16l30 -72q31 -62 31 -135v-323q0 -55 -34.5 -89t-96.5 -34zM144 85q12 0 12 19v332q0 19 -12 19q-13 0 -13 -19v-332
q0 -19 13 -19z" />
    <glyph glyph-name="ntilde" unicode="&#xf1;" 
d="M9 0v538h121v-47q37 52 82 52h5q34 0 49 -22t15 -48v-473h-124v434q0 17 -13 17q-12 0 -12 -18v-433h-123zM172 656h65v-53q0 -50 -45 -50h-2q-20 0 -46 15q-16 10 -21 10t-5 -8v-19h-66v53q0 23 12 36.5t34 13.5h2q19 0 45 -14q17 -11 22 -11t5 8v19z" />
    <glyph glyph-name="ograve" unicode="&#xf2;" horiz-adv-x="291" 
d="M161 668l33 -112h-95l-37 112h99zM155 -8h-20q-126 0 -126 131v293q0 130 127 130h20q126 0 126 -130v-293q0 -65 -33 -98t-94 -33zM145 85q13 0 13 18v334q0 19 -13 19q-12 0 -12 -19v-334q0 -18 12 -18z" />
    <glyph glyph-name="oacute" unicode="&#xf3;" horiz-adv-x="291" 
d="M98 556l34 112h99l-37 -112h-96zM155 -8h-20q-126 0 -126 131v293q0 130 127 130h20q126 0 126 -130v-293q0 -65 -33 -98t-94 -33zM145 85q13 0 13 18v334q0 19 -13 19q-12 0 -12 -19v-334q0 -18 12 -18z" />
    <glyph glyph-name="ocircumflex" unicode="&#xf4;" horiz-adv-x="291" 
d="M196 666l48 -110h-83l-15 49l-15 -49h-82l47 110h100zM155 -8h-20q-126 0 -126 131v293q0 130 127 130h20q126 0 126 -130v-293q0 -65 -33 -98t-94 -33zM145 85q13 0 13 18v334q0 19 -13 19q-12 0 -12 -19v-334q0 -18 12 -18z" />
    <glyph glyph-name="otilde" unicode="&#xf5;" horiz-adv-x="291" 
d="M155 -8h-20q-126 0 -126 131v293q0 130 127 130h20q126 0 126 -130v-293q0 -65 -33 -98t-94 -33zM145 85q13 0 13 18v334q0 19 -13 19q-12 0 -12 -19v-334q0 -18 12 -18zM172 660h65v-53q0 -50 -45 -50h-2q-20 0 -46 15q-16 10 -21 10t-5 -8v-19h-66v53q0 23 12 36.5
t34 13.5h2q19 0 45 -14q17 -11 22 -11t5 8v19z" />
    <glyph glyph-name="odieresis" unicode="&#xf6;" horiz-adv-x="291" 
d="M242 650v-94h-89v94h89zM138 650v-94h-89v94h89zM155 -8h-20q-126 0 -126 131v293q0 130 127 130h20q126 0 126 -130v-293q0 -65 -33 -98t-94 -33zM145 85q13 0 13 18v334q0 19 -13 19q-12 0 -12 -19v-334q0 -18 12 -18z" />
    <glyph glyph-name="divide" unicode="&#xf7;" horiz-adv-x="232" 
d="M155 429v-78h-78v78h78zM9 339h214v-72h-214v72zM155 255v-78h-78v78h78z" />
    <glyph glyph-name="oslash" unicode="&#xf8;" horiz-adv-x="285" 
d="M144 -8h-3q-44 0 -72 18l-8 -14h-52l23 42q-23 32 -23 86v290q0 132 130 132h6q41 0 69 -18l8 14h54l-26 -41q26 -34 26 -87v-290q0 -132 -132 -132zM142 84q14 0 14 20v50l3 119l-30 -112v-57q0 -20 13 -20zM129 380l-3 -110l30 113v53q0 21 -14 21q-13 0 -13 -21v-56z
" />
    <glyph glyph-name="ugrave" unicode="&#xf9;" horiz-adv-x="289" 
d="M280 538v-538h-121v47q-39 -51 -82 -51h-4q-33 0 -48.5 22t-15.5 48v472h124v-434q0 -16 13 -16q11 0 11 17v433h123zM160 668l34 -116h-96l-37 116h99z" />
    <glyph glyph-name="uacute" unicode="&#xfa;" horiz-adv-x="289" 
d="M97 552l35 116h99l-38 -116h-96zM280 538v-538h-121v47q-39 -51 -82 -51h-4q-33 0 -48.5 22t-15.5 48v472h124v-434q0 -16 13 -16q11 0 11 17v433h123z" />
    <glyph glyph-name="ucircumflex" unicode="&#xfb;" horiz-adv-x="289" 
d="M195 668l48 -116h-83l-16 54l-15 -54h-82l47 116h101zM280 538v-538h-121v47q-39 -51 -82 -51h-4q-33 0 -48.5 22t-15.5 48v472h124v-434q0 -16 13 -16q11 0 11 17v433h123z" />
    <glyph glyph-name="udieresis" unicode="&#xfc;" horiz-adv-x="289" 
d="M242 647v-95h-89v95h89zM138 647v-95h-89v95h89zM280 538v-538h-121v47q-39 -51 -82 -51h-4q-33 0 -48.5 22t-15.5 48v472h124v-434q0 -16 13 -16q11 0 11 17v433h123z" />
    <glyph glyph-name="yacute" unicode="&#xfd;" horiz-adv-x="271" 
d="M28 -167v100h38q10 0 10 11q0 1 0.5 10t0.5 13q0 15 -4 42l-74 529h122l18 -317l13 317h120l-84 -653q-10 -52 -57 -52h-103zM88 552l35 116h99l-38 -116h-96z" />
    <glyph glyph-name="thorn" unicode="&#xfe;" horiz-adv-x="289" 
d="M144 79q11 0 11 16v345q0 17 -11 17q-12 0 -12 -17v-345q0 -16 12 -16zM9 744h123v-253q36 52 79 52h3q66 0 66 -91v-370q0 -38 -21 -63.5t-51 -25.5h-2q-43 0 -74 46v-206h-123v911z" />
    <glyph glyph-name="ydieresis" unicode="&#xff;" horiz-adv-x="271" 
d="M28 -167v100h38q10 0 10 11q0 1 0.5 10t0.5 13q0 15 -4 42l-74 529h122l18 -317l13 317h120l-84 -653q-10 -52 -57 -52h-103zM232 647v-95h-89v95h89zM128 647v-95h-89v95h89z" />
    <glyph glyph-name="Amacron" unicode="&#x100;" horiz-adv-x="287" 
d="M152 243l-15 283l-15 -283h30zM165 0l-7 134h-43l-7 -134h-109l62 744h160l67 -744h-123zM59 762v77h165v-77h-165z" />
    <glyph glyph-name="amacron" unicode="&#x101;" horiz-adv-x="282" 
d="M145 93v181q-21 -12 -21 -36v-145q0 -14 11 -14q10 0 10 14zM7 68v167q0 57 50 81q29 14 79 33q9 5 9 14v91q0 13 -11 13h-1q-11 0 -11 -13v-102h-111v103q0 91 116 91h13q61 0 92.5 -20.5t31.5 -69.5v-352q0 -6 6 -6h9v-98h-103q-30 0 -30 44q-28 -49 -75 -49h-2
q-29 0 -45.5 21.5t-16.5 51.5zM52 560v78h165v-78h-165z" />
    <glyph glyph-name="Abreve" unicode="&#x102;" horiz-adv-x="287" 
d="M152 243l-15 283l-15 -283h30zM165 0l-7 134h-43l-7 -134h-109l62 744h160l67 -744h-123zM233 849v-9q0 -37 -24 -61t-67 -24h-3q-44 0 -67.5 24t-23.5 61v9h77v-8q0 -19 15 -19h1q16 0 16 19v8h76z" />
    <glyph glyph-name="abreve" unicode="&#x103;" horiz-adv-x="282" 
d="M145 93v181q-21 -12 -21 -36v-145q0 -14 11 -14q10 0 10 14zM7 68v167q0 57 50 81q29 14 79 33q9 5 9 14v91q0 13 -11 13h-1q-11 0 -11 -13v-102h-111v103q0 91 116 91h13q61 0 92.5 -20.5t31.5 -69.5v-352q0 -6 6 -6h9v-98h-103q-30 0 -30 44q-28 -49 -75 -49h-2
q-29 0 -45.5 21.5t-16.5 51.5zM226 654v-12q0 -42 -23.5 -65t-67.5 -23h-2q-92 0 -92 88v12h77v-8q0 -25 15 -25h1q16 0 16 25v8h76z" />
    <glyph glyph-name="Aogonek" unicode="&#x104;" horiz-adv-x="287" 
d="M152 243l-15 283l-15 -283h30zM165 0l-7 134h-43l-7 -134h-109l62 744h160l67 -744h-123zM173 -110v6q0 50 63 104h51q-27 -34 -27 -74v-2q0 -23 20 -23h7v-68h-42q-31 0 -51.5 14.5t-20.5 42.5z" />
    <glyph glyph-name="aogonek" unicode="&#x105;" horiz-adv-x="282" 
d="M145 93v181q-21 -12 -21 -36v-145q0 -14 11 -14q10 0 10 14zM7 68v167q0 57 50 81q29 14 79 33q9 5 9 14v91q0 13 -11 13h-1q-11 0 -11 -13v-102h-111v103q0 91 116 91h13q61 0 92.5 -20.5t31.5 -69.5v-352q0 -6 6 -6h9v-98h-103q-30 0 -30 44q-28 -49 -75 -49h-2
q-29 0 -45.5 21.5t-16.5 51.5zM165 -110v6q0 50 63 104h51q-27 -34 -27 -74v-2q0 -23 20 -23h7v-68h-42q-31 0 -51.5 14.5t-20.5 42.5z" />
    <glyph glyph-name="Cacute" unicode="&#x106;" horiz-adv-x="299" 
d="M106 761l35 92h102l-38 -92h-99zM153 102q13 0 13 21v217h124v-220q0 -55 -31.5 -91t-94.5 -36h-20q-134 0 -134 139v484q0 62 32.5 98.5t100.5 36.5h21q64 0 95 -32t31 -89v-197h-124v193q0 19 -13 19t-13 -19v-503q0 -21 13 -21z" />
    <glyph glyph-name="cacute" unicode="&#x107;" horiz-adv-x="271" 
d="M92 556l34 112h99l-37 -112h-96zM152 -8h-26q-54 0 -85.5 27.5t-31.5 84.5v328q0 51 28 82.5t89 31.5h28q109 0 109 -101v-133h-111v136q0 13 -10 13t-10 -13v-353q0 -14 10 -14t10 14v154h111v-156q0 -46 -30 -73.5t-81 -27.5z" />
    <glyph glyph-name="Ccircumflex" unicode="&#x108;" horiz-adv-x="299" 
d="M209 853l48 -92h-86l-17 35l-16 -35h-86l48 92h109zM153 102q13 0 13 21v217h124v-220q0 -55 -31.5 -91t-94.5 -36h-20q-134 0 -134 139v484q0 62 32.5 98.5t100.5 36.5h21q64 0 95 -32t31 -89v-197h-124v193q0 19 -13 19t-13 -19v-503q0 -21 13 -21z" />
    <glyph glyph-name="ccircumflex" unicode="&#x109;" horiz-adv-x="271" 
d="M190 668l48 -112h-83l-15 50l-15 -50h-82l47 112h100zM152 -8h-26q-54 0 -85.5 27.5t-31.5 84.5v328q0 51 28 82.5t89 31.5h28q109 0 109 -101v-133h-111v136q0 13 -10 13t-10 -13v-353q0 -14 10 -14t10 14v154h111v-156q0 -46 -30 -73.5t-81 -27.5z" />
    <glyph glyph-name="Cdotaccent" unicode="&#x10a;" horiz-adv-x="299" 
d="M215 866v-105h-123v105h123zM153 102q13 0 13 21v217h124v-220q0 -55 -31.5 -91t-94.5 -36h-20q-134 0 -134 139v484q0 62 32.5 98.5t100.5 36.5h21q64 0 95 -32t31 -89v-197h-124v193q0 19 -13 19t-13 -19v-503q0 -21 13 -21z" />
    <glyph glyph-name="cdotaccent" unicode="&#x10b;" horiz-adv-x="271" 
d="M202 668v-112h-124v112h124zM152 -8h-26q-54 0 -85.5 27.5t-31.5 84.5v328q0 51 28 82.5t89 31.5h28q109 0 109 -101v-133h-111v136q0 13 -10 13t-10 -13v-353q0 -14 10 -14t10 14v154h111v-156q0 -46 -30 -73.5t-81 -27.5z" />
    <glyph glyph-name="Ccaron" unicode="&#x10c;" horiz-adv-x="299" 
d="M100 761l-48 92h87l16 -38l17 38h86l-48 -92h-110zM153 102q13 0 13 21v217h124v-220q0 -55 -31.5 -91t-94.5 -36h-20q-134 0 -134 139v484q0 62 32.5 98.5t100.5 36.5h21q64 0 95 -32t31 -89v-197h-124v193q0 19 -13 19t-13 -19v-503q0 -21 13 -21z" />
    <glyph glyph-name="ccaron" unicode="&#x10d;" horiz-adv-x="271" 
d="M89 556l-46 112h82l15 -54l16 54h82l-46 -112h-103zM152 -8h-26q-54 0 -85.5 27.5t-31.5 84.5v328q0 51 28 82.5t89 31.5h28q109 0 109 -101v-133h-111v136q0 13 -10 13t-10 -13v-353q0 -14 10 -14t10 14v154h111v-156q0 -46 -30 -73.5t-81 -27.5z" />
    <glyph glyph-name="Dcaron" unicode="&#x10e;" horiz-adv-x="299" 
d="M82 758l-50 95h85l16 -38l17 38h85l-50 -95h-103zM10 0v744h181q98 0 98 -107v-524q0 -57 -26 -85t-70 -28h-183zM134 642v-537h12q15 0 15 25v489q0 23 -15 23h-12z" />
    <glyph glyph-name="dcaron" unicode="&#x10f;" 
d="M291 624l4 120h82l-8 -120h-78zM146 81q12 0 12 17v338q0 18 -12 18t-12 -17v-339q0 -17 12 -17zM158 744h123v-744h-122v42q-36 -49 -75 -49h-2q-32 0 -52.5 26.5t-20.5 65.5v371q0 37 19 61.5t48 24.5h4q41 0 78 -45v247z" />
    <glyph glyph-name="Dcroat" unicode="&#x110;" horiz-adv-x="304" 
d="M15 0v328h-14v109h14v307h181q98 0 98 -107v-524q0 -57 -26 -85t-70 -28h-183zM139 642v-205h20v-109h-20v-223h12q15 0 15 25v489q0 23 -15 23h-12z" />
    <glyph glyph-name="dcroat" unicode="&#x111;" 
d="M101 590v89h199v-89h-199zM146 81q12 0 12 17v338q0 18 -12 18t-12 -17v-339q0 -17 12 -17zM158 744h123v-744h-122v42q-36 -49 -75 -49h-2q-32 0 -52.5 26.5t-20.5 65.5v371q0 37 19 61.5t48 24.5h4q41 0 78 -45v247z" />
    <glyph glyph-name="Emacron" unicode="&#x112;" horiz-adv-x="235" 
d="M10 744h214v-114h-90v-181h76v-118h-76v-215h93v-116h-217v744zM36 762v77h165v-77h-165z" />
    <glyph glyph-name="emacron" unicode="&#x113;" horiz-adv-x="277" 
d="M129 451v-120h24v120q0 12 -2 15.5t-10 3.5q-12 0 -12 -19zM269 234v-130q0 -53 -31 -82.5t-85 -29.5h-24q-120 0 -120 116v320q0 56 30.5 87t89.5 31h24q53 0 84.5 -28t31.5 -88v-169h-140v-168q0 -16 12 -16t12 16v141h116zM58 561v78h165v-78h-165z" />
    <glyph glyph-name="Ebreve" unicode="&#x114;" horiz-adv-x="235" 
d="M10 744h214v-114h-90v-181h76v-118h-76v-215h93v-116h-217v744zM212 849v-9q0 -37 -24 -61t-67 -24h-3q-44 0 -67.5 24t-23.5 61v9h77v-8q0 -19 15 -19h1q16 0 16 19v8h76z" />
    <glyph glyph-name="ebreve" unicode="&#x115;" horiz-adv-x="277" 
d="M129 451v-120h24v120q0 12 -2 15.5t-10 3.5q-12 0 -12 -19zM269 234v-130q0 -53 -31 -82.5t-85 -29.5h-24q-120 0 -120 116v320q0 56 30.5 87t89.5 31h24q53 0 84.5 -28t31.5 -88v-169h-140v-168q0 -16 12 -16t12 16v141h116zM232 654v-12q0 -42 -23.5 -65t-67.5 -23h-2
q-92 0 -92 88v12h77v-8q0 -25 15 -25h1q16 0 16 25v8h76z" />
    <glyph glyph-name="Edotaccent" unicode="&#x116;" horiz-adv-x="235" 
d="M181 866v-108h-123v108h123zM10 744h214v-114h-90v-181h76v-118h-76v-215h93v-116h-217v744z" />
    <glyph glyph-name="edotaccent" unicode="&#x117;" horiz-adv-x="277" 
d="M202 668v-112h-124v112h124zM129 451v-120h24v120q0 12 -2 15.5t-10 3.5q-12 0 -12 -19zM269 234v-130q0 -53 -31 -82.5t-85 -29.5h-24q-120 0 -120 116v320q0 56 30.5 87t89.5 31h24q53 0 84.5 -28t31.5 -88v-169h-140v-168q0 -16 12 -16t12 16v141h116z" />
    <glyph glyph-name="Eogonek" unicode="&#x118;" horiz-adv-x="235" 
d="M82 -110v6q0 51 62 104h51q-26 -33 -26 -74v-2q0 -23 21 -23h6v-68h-42q-31 0 -51.5 14.5t-20.5 42.5zM10 744h214v-114h-90v-181h76v-118h-76v-215h93v-116h-217v744z" />
    <glyph glyph-name="eogonek" unicode="&#x119;" horiz-adv-x="277" 
d="M129 451v-120h24v120q0 12 -2 15.5t-10 3.5q-12 0 -12 -19zM229 -99v-68h-43q-31 0 -51.5 14.5t-20.5 42.5v6q0 49 55 97q-7 -1 -16 -1h-24q-120 0 -120 116v320q0 56 30.5 87t89.5 31h24q53 0 84.5 -28t31.5 -88v-169h-140v-168q0 -16 12 -16t12 16v141h116v-130
q0 -24 -8 -46.5t-14 -32.5t-20 -31q-26 -41 -26 -68v-2q0 -23 21 -23h7z" />
    <glyph glyph-name="Ecaron" unicode="&#x11a;" horiz-adv-x="235" 
d="M68 758l-50 95h85l16 -38l17 38h85l-50 -95h-103zM10 744h214v-114h-90v-181h76v-118h-76v-215h93v-116h-217v744z" />
    <glyph glyph-name="ecaron" unicode="&#x11b;" horiz-adv-x="277" 
d="M88 556l-46 110h82l15 -52l16 52h82l-46 -110h-103zM129 451v-120h24v120q0 12 -2 15.5t-10 3.5q-12 0 -12 -19zM269 234v-130q0 -53 -31 -82.5t-85 -29.5h-24q-120 0 -120 116v320q0 56 30.5 87t89.5 31h24q53 0 84.5 -28t31.5 -88v-169h-140v-168q0 -16 12 -16t12 16
v141h116z" />
    <glyph glyph-name="Gcircumflex" unicode="&#x11c;" horiz-adv-x="306" 
d="M207 853l48 -92h-86l-17 35l-16 -35h-85l47 92h109zM112 -7h-3q-48 0 -73.5 35t-25.5 88v506q0 57 32 93t102 36h17q70 0 100 -33.5t30 -85.5v-167h-122v162q0 19 -15 19q-14 0 -14 -19v-508q0 -23 18 -23t18 23v222h-26v97h146v-438h-85q-13 46 -13 47q-34 -54 -86 -54z
" />
    <glyph glyph-name="gcircumflex" unicode="&#x11d;" 
d="M193 668l48 -116h-83l-16 54l-15 -54h-82l47 116h101zM146 79q12 0 12 16v343q0 16 -12 16t-12 -16v-343q0 -16 12 -16zM160 -172h-29q-116 0 -116 84v75h120v-60q0 -13 11 -13q12 0 12 14v113l-6 -7q-6 -7 -8.5 -9.5l-8.5 -8.5t-10.5 -8.5t-11.5 -6.5t-14.5 -5.5
t-15.5 -1.5q-33 0 -53.5 23t-20.5 63v377q0 36 18 60.5t51 24.5h4q37 0 77 -47v43h122v-610q0 -48 -31 -74t-90 -26z" />
    <glyph glyph-name="Gbreve" unicode="&#x11e;" horiz-adv-x="306" 
d="M247 853v-9q0 -37 -24 -61t-67 -24h-3q-44 0 -67.5 24t-23.5 61v9h77v-8q0 -19 15 -19h1q16 0 16 19v8h76zM112 -7h-3q-48 0 -73.5 35t-25.5 88v506q0 57 32 93t102 36h17q70 0 100 -33.5t30 -85.5v-167h-122v162q0 19 -15 19q-14 0 -14 -19v-508q0 -23 18 -23t18 23v222
h-26v97h146v-438h-85q-13 46 -13 47q-34 -54 -86 -54z" />
    <glyph glyph-name="gbreve" unicode="&#x11f;" 
d="M146 79q12 0 12 16v343q0 16 -12 16t-12 -16v-343q0 -16 12 -16zM160 -172h-29q-116 0 -116 84v75h120v-60q0 -13 11 -13q12 0 12 14v113l-6 -7q-6 -7 -8.5 -9.5l-8.5 -8.5t-10.5 -8.5t-11.5 -6.5t-14.5 -5.5t-15.5 -1.5q-33 0 -53.5 23t-20.5 63v377q0 36 18 60.5
t51 24.5h4q37 0 77 -47v43h122v-610q0 -48 -31 -74t-90 -26zM235 650v-12q0 -42 -23.5 -65t-67.5 -23h-2q-92 0 -92 88v12h77v-8q0 -25 15 -25h1q16 0 16 25v8h76z" />
    <glyph glyph-name="Gdotaccent" unicode="&#x120;" horiz-adv-x="306" 
d="M215 866v-105h-123v105h123zM112 -7h-3q-48 0 -73.5 35t-25.5 88v506q0 57 32 93t102 36h17q70 0 100 -33.5t30 -85.5v-167h-122v162q0 19 -15 19q-14 0 -14 -19v-508q0 -23 18 -23t18 23v222h-26v97h146v-438h-85q-13 46 -13 47q-34 -54 -86 -54z" />
    <glyph glyph-name="gdotaccent" unicode="&#x121;" 
d="M146 79q12 0 12 16v343q0 16 -12 16t-12 -16v-343q0 -16 12 -16zM160 -172h-29q-116 0 -116 84v75h120v-60q0 -13 11 -13q12 0 12 14v113l-6 -7q-6 -7 -8.5 -9.5l-8.5 -8.5t-10.5 -8.5t-11.5 -6.5t-14.5 -5.5t-15.5 -1.5q-33 0 -53.5 23t-20.5 63v377q0 36 18 60.5
t51 24.5h4q37 0 77 -47v43h122v-610q0 -48 -31 -74t-90 -26zM205 668v-116h-123v116h123z" />
    <glyph glyph-name="uni0122" unicode="&#x122;" horiz-adv-x="306" 
d="M191 -164h-53q10 28 12 57h-40v91h98v-66q0 -46 -17 -82zM112 -7h-3q-48 0 -73.5 35t-25.5 88v506q0 57 32 93t102 36h17q70 0 100 -33.5t30 -85.5v-167h-122v162q0 19 -15 19q-14 0 -14 -19v-508q0 -23 18 -23t18 23v222h-26v97h146v-438h-85q-13 46 -13 47
q-34 -54 -86 -54z" />
    <glyph glyph-name="uni0123" unicode="&#x123;" horiz-adv-x="289" 
d="M108 700h53q-10 -28 -12 -57h40v-91h-98v66q0 46 17 82zM146 79q12 0 12 16v343q0 16 -12 16t-12 -16v-343q0 -16 12 -16zM160 -172h-29q-116 0 -116 84v75h120v-60q0 -13 11 -13q12 0 12 14v113l-6 -7q-6 -7 -8.5 -9.5l-8.5 -8.5t-10.5 -8.5t-11.5 -6.5t-14.5 -5.5
t-15.5 -1.5q-33 0 -53.5 23t-20.5 63v377q0 36 18 60.5t51 24.5h4q37 0 77 -47v43h122v-610q0 -48 -31 -74t-90 -26z" />
    <glyph glyph-name="Hcircumflex" unicode="&#x124;" horiz-adv-x="300" 
d="M10 0v744h127v-289h27v289h126v-744h-126v324h-27v-324h-127zM201 853l50 -95h-85l-17 37l-16 -37h-85l50 95h103z" />
    <glyph glyph-name="hcircumflex" unicode="&#x125;" 
d="M9 0v744h123v-251q35 50 80 50h4q34 0 49.5 -21.5t15.5 -48.5v-473h-124v434q0 17 -13 17q-12 0 -12 -18v-433h-123zM192 852l50 -95h-85l-17 37l-16 -37h-85l50 95h103z" />
    <glyph glyph-name="Hbar" unicode="&#x126;" horiz-adv-x="306" 
d="M2 553v85h303v-85h-303zM13 0v744h127v-289h27v289h126v-744h-126v324h-27v-324h-127z" />
    <glyph glyph-name="hbar" unicode="&#x127;" 
d="M-10 590v89h199v-89h-199zM9 0v744h123v-251q35 50 80 50h4q34 0 49.5 -21.5t15.5 -48.5v-473h-124v434q0 17 -13 17q-12 0 -12 -18v-433h-123z" />
    <glyph glyph-name="Itilde" unicode="&#x128;" horiz-adv-x="147" 
d="M137 744v-744h-127v744h127zM73 839q21 -8 24 -8q5 0 5 8v16h65v-44q0 -52 -43 -52h-2q-16 0 -49 13l-24 8q-6 0 -6 -8v-15h-64v46q0 50 44 50h1q14 0 49 -14z" />
    <glyph glyph-name="itilde" unicode="&#x129;" horiz-adv-x="141" 
d="M93 656h60v-56q0 -47 -39 -47h-2q-18 0 -40 15q-16 10 -19 10q-5 0 -5 -8v-19h-60v56q0 47 40 47h1q16 0 39 -14q17 -11 20 -11q5 0 5 8v19zM132 538v-538h-123v538h123z" />
    <glyph glyph-name="Imacron" unicode="&#x12a;" horiz-adv-x="147" 
d="M137 744v-744h-127v744h127zM-9 762v77h165v-77h-165z" />
    <glyph glyph-name="imacron" unicode="&#x12b;" horiz-adv-x="141" 
d="M-2 557v77h145v-77h-145zM132 538v-538h-123v538h123z" />
    <glyph glyph-name="Ibreve" unicode="&#x12c;" horiz-adv-x="147" 
d="M137 744v-744h-127v744h127zM166 849v-9q0 -37 -24 -61t-67 -24h-3q-44 0 -67.5 24t-23.5 61v9h77v-8q0 -19 15 -19h1q16 0 16 19v8h76z" />
    <glyph glyph-name="ibreve" unicode="&#x12d;" horiz-adv-x="141" 
d="M72 550h-2q-80 0 -80 77v24h68v-15q0 -20 13 -20t13 20v15h67v-24q0 -34 -19.5 -55.5t-59.5 -21.5zM132 538v-538h-123v538h123z" />
    <glyph glyph-name="Iogonek" unicode="&#x12e;" horiz-adv-x="147" 
d="M137 744v-744h-127v744h127zM23 -110v6q0 50 63 104h51q-27 -34 -27 -74v-2q0 -23 20 -23h7v-68h-42q-31 0 -51.5 14.5t-20.5 42.5z" />
    <glyph glyph-name="iogonek" unicode="&#x12f;" horiz-adv-x="141" 
d="M132 668v-116h-123v116h123zM132 538v-538h-123v538h123zM18 -110v6q0 50 63 104h51q-27 -34 -27 -74v-2q0 -23 20 -23h7v-68h-42q-31 0 -51.5 14.5t-20.5 42.5z" />
    <glyph glyph-name="Idotaccent" unicode="&#x130;" horiz-adv-x="147" 
d="M137 744v-744h-127v744h127zM135 866v-108h-123v108h123z" />
    <glyph glyph-name="dotlessi" unicode="&#x131;" horiz-adv-x="141" 
d="M132 538v-538h-123v538h123z" />
    <glyph glyph-name="IJ" unicode="&#x132;" horiz-adv-x="429" 
d="M137 744v-744h-127v744h127zM153 321h115v-207q0 -13 11 -13h1q10 0 10 13v630h129v-637q0 -52 -30 -83t-92 -31h-34q-57 0 -83.5 30.5t-26.5 79.5v218z" />
    <glyph glyph-name="ij" unicode="&#x133;" horiz-adv-x="280" 
d="M132 668v-116h-123v116h123zM132 538v-538h-123v538h123zM271 668v-116h-123v116h123zM113 -61h24q11 0 11 12v587h123v-647q0 -28 -15.5 -43t-38.5 -15h-104v106z" />
    <glyph glyph-name="Jcircumflex" unicode="&#x134;" horiz-adv-x="284" 
d="M259 853l50 -95h-85l-17 37l-16 -37h-85l50 95h103zM8 321h115v-207q0 -13 11 -13h1q10 0 10 13v630h129v-637q0 -52 -30 -83t-92 -31h-34q-57 0 -83.5 30.5t-26.5 79.5v218z" />
    <glyph glyph-name="jcircumflex" unicode="&#x135;" horiz-adv-x="141" 
d="M120 668l32 -116h-71l-13 57l-12 -57h-70l33 116h101zM-26 -61h24q11 0 11 12v587h123v-647q0 -28 -15.5 -43t-38.5 -15h-104v106z" />
    <glyph glyph-name="uni0136" unicode="&#x136;" horiz-adv-x="304" 
d="M188 -162h-53q10 28 12 57h-40v91h98v-66q0 -46 -17 -82zM136 0h-126v744h126l-1 -268l42 268h126l-61 -337l64 -407h-132l-39 293z" />
    <glyph glyph-name="uni0137" unicode="&#x137;" horiz-adv-x="283" 
d="M180 -162h-53q10 28 12 57h-40v91h98v-66q0 -46 -17 -82zM132 0h-123v744h123v-381l30 175h116l-45 -227l51 -311h-120l-33 222z" />
    <glyph glyph-name="Lacute" unicode="&#x139;" horiz-adv-x="224" 
d="M24 758l37 95h102l-40 -95h-99zM10 744h126l1 -626h80l-1 -118h-206v744z" />
    <glyph glyph-name="lacute" unicode="&#x13a;" horiz-adv-x="141" 
d="M21 757l37 95h102l-40 -95h-99zM132 744v-744h-123v744h123z" />
    <glyph glyph-name="uni013B" unicode="&#x13b;" horiz-adv-x="224" 
d="M147 -162h-53q10 28 12 57h-40v91h98v-66q0 -46 -17 -82zM10 744h126l1 -626h80l-1 -118h-206v744z" />
    <glyph glyph-name="uni013C" unicode="&#x13c;" horiz-adv-x="141" 
d="M103 -162h-53q10 28 12 57h-40v91h98v-66q0 -46 -17 -82zM132 744v-744h-123v744h123z" />
    <glyph glyph-name="Lcaron" unicode="&#x13d;" horiz-adv-x="224" 
d="M146 624l4 120h82l-8 -120h-78zM10 744h126l1 -626h80l-1 -118h-206v744z" />
    <glyph glyph-name="lcaron" unicode="&#x13e;" horiz-adv-x="141" 
d="M142 624l4 120h82l-8 -120h-78zM132 744v-744h-123v744h123z" />
    <glyph glyph-name="Ldot" unicode="&#x13f;" horiz-adv-x="261" 
d="M256 446v-128h-107v128h107zM10 744h126l1 -626h80l-1 -118h-206v744z" />
    <glyph glyph-name="ldot" unicode="&#x140;" horiz-adv-x="256" 
d="M251 453v-128h-107v128h107zM132 744v-744h-123v744h123z" />
    <glyph glyph-name="Lslash" unicode="&#x141;" horiz-adv-x="234" 
d="M20 744h126v-280l50 45v-105l-50 -44l1 -242h80l-1 -118h-206v248l-17 -15v101l17 15v395z" />
    <glyph glyph-name="lslash" unicode="&#x142;" horiz-adv-x="166" 
d="M145 430v-430h-123v327l-19 -16v96l19 16v321h123v-217l18 15v-97z" />
    <glyph glyph-name="Nacute" unicode="&#x143;" horiz-adv-x="301" 
d="M103 758l37 95h102l-40 -95h-99zM10 744h128l49 -403l-1 403h105v-744h-117l-59 446l1 -446h-106v744z" />
    <glyph glyph-name="nacute" unicode="&#x144;" 
d="M98 552l35 116h99l-38 -116h-96zM9 0v538h121v-47q37 52 82 52h5q34 0 49 -22t15 -48v-473h-124v434q0 17 -13 17q-12 0 -12 -18v-433h-123z" />
    <glyph glyph-name="uni0145" unicode="&#x145;" horiz-adv-x="301" 
d="M185 -162h-53q10 28 12 57h-40v91h98v-66q0 -46 -17 -82zM10 744h128l49 -403l-1 403h105v-744h-117l-59 446l1 -446h-106v744z" />
    <glyph glyph-name="uni0146" unicode="&#x146;" 
d="M178 -162h-53q10 28 12 57h-40v91h98v-66q0 -46 -17 -82zM9 0v538h121v-47q37 52 82 52h5q34 0 49 -22t15 -48v-473h-124v434q0 17 -13 17q-12 0 -12 -18v-433h-123z" />
    <glyph glyph-name="Ncaron" unicode="&#x147;" horiz-adv-x="301" 
d="M101 758l-50 95h85l16 -38l17 38h85l-50 -95h-103zM10 744h128l49 -403l-1 403h105v-744h-117l-59 446l1 -446h-106v744z" />
    <glyph glyph-name="ncaron" unicode="&#x148;" 
d="M96 552l-48 116h82l15 -54l16 54h82l-47 -116h-100zM9 0v538h121v-47q37 52 82 52h5q34 0 49 -22t15 -48v-473h-124v434q0 17 -13 17q-12 0 -12 -18v-433h-123z" />
    <glyph glyph-name="napostrophe" unicode="&#x149;" horiz-adv-x="377" 
d="M77 561h-57q17 46 17 74h-36v109h98v-85q0 -52 -22 -98zM96 0v538h121v-47q37 52 82 52h5q34 0 49 -22t15 -48v-473h-124v434q0 17 -13 17q-12 0 -12 -18v-433h-123z" />
    <glyph glyph-name="Eng" unicode="&#x14a;" horiz-adv-x="299" 
d="M289 744v-839q0 -32 -17.5 -52t-46.5 -20h-86v99h27q13 0 13 14v54l-65 446v-446h-104v744h127l49 -409l-1 409h104z" />
    <glyph glyph-name="eng" unicode="&#x14b;" 
d="M157 -50v484q0 17 -13 17q-12 0 -12 -18v-433h-123v538h121v-47q39 52 83 52h6q32 0 47 -22.5t15 -47.5v-582q0 -28 -15.5 -43t-37.5 -15h-93v106h11q11 0 11 11z" />
    <glyph glyph-name="Omacron" unicode="&#x14c;" horiz-adv-x="310" 
d="M73 766v77h165v-77h-165zM300 604v-467q0 -69 -35.5 -106.5t-98.5 -37.5h-21q-66 0 -100.5 37.5t-34.5 106.5v467q0 147 135 147h20q135 0 135 -147zM170 126v492q0 22 -15 22q-14 0 -14 -22v-492q0 -20 14 -20q15 0 15 20z" />
    <glyph glyph-name="omacron" unicode="&#x14d;" horiz-adv-x="291" 
d="M64 561v78h165v-78h-165zM155 -8h-20q-126 0 -126 131v293q0 130 127 130h20q126 0 126 -130v-293q0 -65 -33 -98t-94 -33zM145 85q13 0 13 18v334q0 19 -13 19q-12 0 -12 -19v-334q0 -18 12 -18z" />
    <glyph glyph-name="Obreve" unicode="&#x14e;" horiz-adv-x="310" 
d="M248 853v-9q0 -37 -24 -61t-67 -24h-3q-44 0 -67.5 24t-23.5 61v9h77v-8q0 -19 15 -19h1q16 0 16 19v8h76zM300 604v-467q0 -69 -35.5 -106.5t-98.5 -37.5h-21q-66 0 -100.5 37.5t-34.5 106.5v467q0 147 135 147h20q135 0 135 -147zM170 126v492q0 22 -15 22
q-14 0 -14 -22v-492q0 -20 14 -20q15 0 15 20z" />
    <glyph glyph-name="obreve" unicode="&#x14f;" horiz-adv-x="291" 
d="M155 -8h-20q-126 0 -126 131v293q0 130 127 130h20q126 0 126 -130v-293q0 -65 -33 -98t-94 -33zM145 85q13 0 13 18v334q0 19 -13 19q-12 0 -12 -19v-334q0 -18 12 -18zM238 654v-12q0 -42 -23.5 -65t-67.5 -23h-2q-92 0 -92 88v12h77v-8q0 -25 15 -25h1q16 0 16 25v8
h76z" />
    <glyph glyph-name="Ohungarumlaut" unicode="&#x150;" horiz-adv-x="310" 
d="M166 761l26 92h85l-28 -92h-83zM68 761l25 92h84l-26 -92h-83zM300 604v-467q0 -69 -35.5 -106.5t-98.5 -37.5h-21q-66 0 -100.5 37.5t-34.5 106.5v467q0 147 135 147h20q135 0 135 -147zM170 126v492q0 22 -15 22q-14 0 -14 -22v-492q0 -20 14 -20q15 0 15 20z" />
    <glyph glyph-name="ohungarumlaut" unicode="&#x151;" horiz-adv-x="291" 
d="M157 556l25 112h82l-25 -112h-82zM61 556l24 112h82l-24 -112h-82zM155 -8h-20q-126 0 -126 131v293q0 130 127 130h20q126 0 126 -130v-293q0 -65 -33 -98t-94 -33zM145 85q13 0 13 18v334q0 19 -13 19q-12 0 -12 -19v-334q0 -18 12 -18z" />
    <glyph glyph-name="OE" unicode="&#x152;" horiz-adv-x="384" 
d="M168 127v492q0 22 -13 22q-14 0 -14 -22v-492q0 -22 14 -22q13 0 13 22zM174 0v31q-23 -38 -66 -38h-4q-45 0 -69.5 35t-24.5 100v490q0 58 23.5 95t70.5 37h4q42 0 66 -36v30h199v-114h-76v-181h62v-118h-62v-215h79v-116h-202z" />
    <glyph glyph-name="oe" unicode="&#x153;" horiz-adv-x="428" 
d="M280 450v-120h24v124q-2 15 -12 15q-12 0 -12 -19zM145 84q12 0 12 18v334q0 20 -12 20q-13 0 -13 -20v-334q0 -18 13 -18zM218 13q-30 -22 -71 -22h-14q-124 0 -124 131v293q0 131 124 131h16q43 0 72 -21q23 20 63 20h21q52 0 83.5 -28t31.5 -88v-168h-140v-168
q0 -17 12 -17t12 17v141h116v-130q0 -53 -30.5 -82.5t-83.5 -29.5h-22q-37 0 -66 21z" />
    <glyph glyph-name="Racute" unicode="&#x154;" horiz-adv-x="298" 
d="M92 758l37 95h102l-40 -95h-99zM137 650v-217h10q14 0 14 17v183q0 17 -13 17h-11zM137 327v-327h-127v744h197q35 0 57 -22.5t22 -66.5v-175q0 -61 -45 -80q47 -20 47 -69v-295q0 -22 6 -33v-3h-125q-8 11 -8 31v279q0 17 -14 17h-10z" />
    <glyph glyph-name="racute" unicode="&#x155;" horiz-adv-x="265" 
d="M94 552l35 116h99l-38 -116h-96zM132 440v-440h-123v538h121v-47q32 50 70 50h7q25 0 38 -15t13 -38v-194h-108v146q0 12 -9 12t-9 -12z" />
    <glyph glyph-name="uni0156" unicode="&#x156;" horiz-adv-x="298" 
d="M185 -162h-53q10 28 12 57h-40v91h98v-66q0 -46 -17 -82zM137 650v-217h10q14 0 14 17v183q0 17 -13 17h-11zM137 327v-327h-127v744h197q35 0 57 -22.5t22 -66.5v-175q0 -61 -45 -80q47 -20 47 -69v-295q0 -22 6 -33v-3h-125q-8 11 -8 31v279q0 17 -14 17h-10z" />
    <glyph glyph-name="uni0157" unicode="&#x157;" horiz-adv-x="265" 
d="M102 -162h-53q10 28 12 57h-40v91h98v-66q0 -46 -17 -82zM132 440v-440h-123v538h121v-47q32 50 70 50h7q25 0 38 -15t13 -38v-194h-108v146q0 12 -9 12t-9 -12z" />
    <glyph glyph-name="Rcaron" unicode="&#x158;" horiz-adv-x="298" 
d="M89 758l-50 95h85l16 -38l17 38h85l-50 -95h-103zM137 650v-217h10q14 0 14 17v183q0 17 -13 17h-11zM137 327v-327h-127v744h197q35 0 57 -22.5t22 -66.5v-175q0 -61 -45 -80q47 -20 47 -69v-295q0 -22 6 -33v-3h-125q-8 11 -8 31v279q0 17 -14 17h-10z" />
    <glyph glyph-name="rcaron" unicode="&#x159;" horiz-adv-x="265" 
d="M91 552l-48 116h82l15 -54l16 54h82l-47 -116h-100zM132 440v-440h-123v538h121v-47q32 50 70 50h7q25 0 38 -15t13 -38v-194h-108v146q0 12 -9 12t-9 -12z" />
    <glyph glyph-name="Sacute" unicode="&#x15a;" horiz-adv-x="300" 
d="M103 761l36 92h102l-39 -92h-99zM161 -7h-29q-124 0 -124 115v195h124v-186q0 -20 13 -20q14 0 14 21v145q0 19 -4 29t-18 22l-65 56q-61 51 -61 133v132q0 116 127 116h29q120 0 120 -106v-164h-122v158q0 16 -13 16t-13 -16v-127q0 -23 20 -42l64 -56q39 -32 54 -62.5
t15 -78.5v-148q0 -132 -131 -132z" />
    <glyph glyph-name="sacute" unicode="&#x15b;" horiz-adv-x="261" 
d="M84 556l33 112h99l-36 -112h-96zM142 -8h-30q-105 0 -105 91v130h109v-125q0 -13 11 -13t11 13v99q0 23 -18 36l-53 36q-34 23 -45.5 48t-11.5 61v84q0 94 109 94h27q103 0 103 -82v-109h-106v103q0 14 -10 14q-11 0 -11 -14v-82q0 -12 3 -17.5t13 -14.5l55 -37
q36 -27 48.5 -51.5t12.5 -62.5v-99q0 -50 -29.5 -76t-82.5 -26z" />
    <glyph glyph-name="Scircumflex" unicode="&#x15c;" horiz-adv-x="300" 
d="M206 853l48 -92h-86l-17 35l-16 -35h-85l47 92h109zM161 -7h-29q-124 0 -124 115v195h124v-186q0 -20 13 -20q14 0 14 21v145q0 19 -4 29t-18 22l-65 56q-61 51 -61 133v132q0 116 127 116h29q120 0 120 -106v-164h-122v158q0 16 -13 16t-13 -16v-127q0 -23 20 -42
l64 -56q39 -32 54 -62.5t15 -78.5v-148q0 -132 -131 -132z" />
    <glyph glyph-name="scircumflex" unicode="&#x15d;" horiz-adv-x="261" 
d="M183 668l48 -112h-83l-15 50l-15 -50h-82l47 112h100zM142 -8h-30q-105 0 -105 91v130h109v-125q0 -13 11 -13t11 13v99q0 23 -18 36l-53 36q-34 23 -45.5 48t-11.5 61v84q0 94 109 94h27q103 0 103 -82v-109h-106v103q0 14 -10 14q-11 0 -11 -14v-82q0 -12 3 -17.5
t13 -14.5l55 -37q36 -27 48.5 -51.5t12.5 -62.5v-99q0 -50 -29.5 -76t-82.5 -26z" />
    <glyph glyph-name="uni015E" unicode="&#x15e;" horiz-adv-x="297" 
d="M161 -7h-29q-124 0 -124 115v195h124v-186q0 -20 13 -20q14 0 14 21v145q0 19 -4 29t-18 22l-65 56q-61 51 -61 133v132q0 116 127 116h29q120 0 120 -106v-164h-122v158q0 16 -13 16t-13 -16v-127q0 -23 20 -42l64 -56q39 -32 54 -62.5t15 -78.5v-148q0 -132 -131 -132z
M93 -141v53h42q14 0 14 10q0 9 -14 9h-33v69h52v-23h4q32 0 48.5 -15t16.5 -40v-2q0 -28 -18 -44.5t-53 -16.5h-59z" />
    <glyph glyph-name="uni015F" unicode="&#x15f;" horiz-adv-x="257" 
d="M142 -8h-30q-105 0 -105 91v130h109v-125q0 -13 11 -13t11 13v99q0 23 -18 36l-53 36q-34 23 -45.5 48t-11.5 61v84q0 94 109 94h27q103 0 103 -82v-109h-106v103q0 14 -10 14q-11 0 -11 -14v-82q0 -12 3 -17.5t13 -14.5l55 -37q36 -27 48.5 -51.5t12.5 -62.5v-99
q0 -50 -29.5 -76t-82.5 -26zM72 -141v53h42q14 0 14 10q0 9 -14 9h-33v69h52v-23h4q32 0 48.5 -15t16.5 -40v-2q0 -28 -18 -44.5t-53 -16.5h-59z" />
    <glyph glyph-name="Scaron" unicode="&#x160;" horiz-adv-x="300" 
d="M98 761l-48 92h86l16 -38l17 38h87l-48 -92h-110zM161 -7h-29q-124 0 -124 115v195h124v-186q0 -20 13 -20q14 0 14 21v145q0 19 -4 29t-18 22l-65 56q-61 51 -61 133v132q0 116 127 116h29q120 0 120 -106v-164h-122v158q0 16 -13 16t-13 -16v-127q0 -23 20 -42l64 -56
q39 -32 54 -62.5t15 -78.5v-148q0 -132 -131 -132z" />
    <glyph glyph-name="scaron" unicode="&#x161;" horiz-adv-x="261" 
d="M80 556l-46 112h82l15 -54l16 54h82l-46 -112h-103zM142 -8h-30q-105 0 -105 91v130h109v-125q0 -13 11 -13t11 13v99q0 23 -18 36l-53 36q-34 23 -45.5 48t-11.5 61v84q0 94 109 94h27q103 0 103 -82v-109h-106v103q0 14 -10 14q-11 0 -11 -14v-82q0 -12 3 -17.5
t13 -14.5l55 -37q36 -27 48.5 -51.5t12.5 -62.5v-99q0 -50 -29.5 -76t-82.5 -26z" />
    <glyph glyph-name="Tcommaaccent" unicode="&#x162;" horiz-adv-x="255" 
d="M160 -162h-53q10 28 12 57h-40v91h98v-66q0 -46 -17 -82zM65 0v630h-57v114h239v-114h-57v-630h-125z" />
    <glyph glyph-name="tcommaaccent" unicode="&#x163;" horiz-adv-x="208" 
d="M163 -162h-53q10 28 12 57h-40v91h98v-66q0 -46 -17 -82zM202 0h-116q-18 0 -30.5 12.5t-12.5 36.5v389h-38v100h38v172h123v-172h36v-100h-36v-324q0 -12 11 -12h25v-102z" />
    <glyph glyph-name="Tcaron" unicode="&#x164;" horiz-adv-x="255" 
d="M77 758l-50 95h85l16 -38l17 38h85l-50 -95h-103zM65 0v630h-57v114h239v-114h-57v-630h-125z" />
    <glyph glyph-name="tcaron" unicode="&#x165;" horiz-adv-x="208" 
d="M176 624l4 120h82l-8 -120h-78zM202 0h-116q-18 0 -30.5 12.5t-12.5 36.5v389h-38v100h38v172h123v-172h36v-100h-36v-324q0 -12 11 -12h25v-102z" />
    <glyph glyph-name="Tbar" unicode="&#x166;" horiz-adv-x="255" 
d="M229 366h-203v98h203v-98zM65 0v630h-57v114h239v-114h-57v-630h-125z" />
    <glyph glyph-name="tbar" unicode="&#x167;" horiz-adv-x="208" 
d="M5 368h38v70h-38v100h38v172h123v-172h36v-100h-36v-70h36v-86h-36v-168q0 -12 11 -12h25v-102h-116q-18 0 -30.5 12.5t-12.5 36.5v233h-38v86z" />
    <glyph glyph-name="Utilde" unicode="&#x168;" horiz-adv-x="306" 
d="M156 839q21 -8 24 -8q5 0 5 8v16h65v-44q0 -52 -43 -52h-2q-17 0 -49 13l-24 8q-6 0 -6 -8v-15h-64v46q0 50 44 50h1q14 0 49 -14zM163 -8h-20q-68 0 -100.5 34.5t-32.5 88.5v629h130v-614q0 -19 13 -19q14 0 14 19v614h129v-629q0 -52 -34 -87.5t-99 -35.5z" />
    <glyph glyph-name="utilde" unicode="&#x169;" horiz-adv-x="289" 
d="M280 538v-538h-121v47q-39 -51 -82 -51h-4q-33 0 -48.5 22t-15.5 48v472h124v-434q0 -16 13 -16q11 0 11 17v433h123zM173 656h65v-53q0 -50 -45 -50h-2q-20 0 -46 15q-16 10 -21 10t-5 -8v-19h-66v53q0 23 12 36.5t34 13.5h2q19 0 45 -14q17 -11 22 -11t5 8v19z" />
    <glyph glyph-name="Umacron" unicode="&#x16a;" horiz-adv-x="306" 
d="M163 -8h-20q-68 0 -100.5 34.5t-32.5 88.5v629h130v-614q0 -19 13 -19q14 0 14 19v614h129v-629q0 -52 -34 -87.5t-99 -35.5zM71 762v77h165v-77h-165z" />
    <glyph glyph-name="umacron" unicode="&#x16b;" horiz-adv-x="289" 
d="M280 538v-538h-121v47q-39 -51 -82 -51h-4q-33 0 -48.5 22t-15.5 48v472h124v-434q0 -16 13 -16q11 0 11 17v433h123zM63 557v78h165v-78h-165z" />
    <glyph glyph-name="Ubreve" unicode="&#x16c;" horiz-adv-x="306" 
d="M163 -8h-20q-68 0 -100.5 34.5t-32.5 88.5v629h130v-614q0 -19 13 -19q14 0 14 19v614h129v-629q0 -52 -34 -87.5t-99 -35.5zM246 849v-9q0 -37 -24 -61t-67 -24h-3q-44 0 -67.5 24t-23.5 61v9h77v-8q0 -19 15 -19h1q16 0 16 19v8h76z" />
    <glyph glyph-name="ubreve" unicode="&#x16d;" horiz-adv-x="289" 
d="M280 538v-538h-121v47q-39 -51 -82 -51h-4q-33 0 -48.5 22t-15.5 48v472h124v-434q0 -16 13 -16q11 0 11 17v433h123zM237 650v-12q0 -42 -23.5 -65t-67.5 -23h-2q-92 0 -92 88v12h77v-8q0 -25 15 -25h1q16 0 16 25v8h76z" />
    <glyph glyph-name="Uring" unicode="&#x16e;" horiz-adv-x="306" 
d="M163 -8h-20q-68 0 -100.5 34.5t-32.5 88.5v629h130v-614q0 -19 13 -19q14 0 14 19v614h129v-629q0 -52 -34 -87.5t-99 -35.5zM87 818q0 27 19 44.5t47 17.5t46.5 -17.5t18.5 -44.5q0 -29 -18.5 -46t-46.5 -17t-47 17t-19 46zM153 843q-11 0 -18.5 -7.5t-7.5 -18.5
t7.5 -18.5t18.5 -7.5t18 7.5t7 18.5t-7 18.5t-18 7.5z" />
    <glyph glyph-name="uring" unicode="&#x16f;" horiz-adv-x="289" 
d="M210 613q0 -28 -18.5 -45.5t-46.5 -17.5t-47 18t-19 45t19 44.5t47 17.5t46.5 -17.5t18.5 -44.5zM119 613q0 -12 7.5 -19t18.5 -7q25 0 25 26q0 25 -25 25q-11 0 -18.5 -7t-7.5 -18zM280 538v-538h-121v47q-39 -51 -82 -51h-4q-33 0 -48.5 22t-15.5 48v472h124v-434
q0 -16 13 -16q11 0 11 17v433h123z" />
    <glyph glyph-name="Uhungarumlaut" unicode="&#x170;" horiz-adv-x="306" 
d="M162 758l26 95h85l-28 -95h-83zM64 758l25 95h84l-26 -95h-83zM163 -8h-20q-68 0 -100.5 34.5t-32.5 88.5v629h130v-614q0 -19 13 -19q14 0 14 19v614h129v-629q0 -52 -34 -87.5t-99 -35.5z" />
    <glyph glyph-name="uhungarumlaut" unicode="&#x171;" horiz-adv-x="289" 
d="M280 538v-538h-121v47q-39 -51 -82 -51h-4q-33 0 -48.5 22t-15.5 48v472h124v-434q0 -16 13 -16q11 0 11 17v433h123zM153 552l25 116h82l-26 -116h-81zM57 552l25 116h82l-26 -116h-81z" />
    <glyph glyph-name="Uogonek" unicode="&#x172;" horiz-adv-x="306" 
d="M242 -167h-43q-31 0 -51.5 14.5t-20.5 42.5v6q0 47 58 98q-14 -2 -22 -2h-20q-68 0 -100.5 34.5t-32.5 88.5v629h130v-614q0 -19 13 -19q14 0 14 19v614h129v-629q0 -25 -9 -48t-17 -34t-28 -36q-28 -40 -28 -71v-2q0 -23 21 -23h7v-68z" />
    <glyph glyph-name="uogonek" unicode="&#x173;" horiz-adv-x="289" 
d="M166 -110v6q0 50 63 104h51q-27 -34 -27 -74v-2q0 -23 20 -23h7v-68h-42q-31 0 -51.5 14.5t-20.5 42.5zM280 538v-538h-121v47q-39 -51 -82 -51h-4q-33 0 -48.5 22t-15.5 48v472h124v-434q0 -16 13 -16q11 0 11 17v433h123z" />
    <glyph glyph-name="Wcircumflex" unicode="&#x174;" horiz-adv-x="442" 
d="M274 853l50 -95h-85l-17 37l-16 -37h-85l50 95h103zM206 0h-146l-61 744h131l15 -486l21 486h118l22 -489l15 489h122l-61 -744h-143l-16 424z" />
    <glyph glyph-name="wcircumflex" unicode="&#x175;" horiz-adv-x="411" 
d="M256 668l48 -116h-83l-16 54l-15 -54h-82l47 116h101zM192 0h-136l-57 538h123l13 -351l16 351h111l18 -363l12 363h120l-57 -538h-134l-15 308z" />
    <glyph glyph-name="Ycircumflex" unicode="&#x176;" horiz-adv-x="279" 
d="M80 0v293l-82 451h126l22 -257l22 257h113l-75 -451v-293h-126zM197 853l50 -95h-85l-17 37l-16 -37h-85l50 95h103z" />
    <glyph glyph-name="ycircumflex" unicode="&#x177;" horiz-adv-x="271" 
d="M28 -167v100h38q10 0 10 11q0 1 0.5 10t0.5 13q0 15 -4 42l-74 529h122l18 -317l13 317h120l-84 -653q-10 -52 -57 -52h-103zM186 668l48 -116h-83l-16 54l-15 -54h-82l47 116h101z" />
    <glyph glyph-name="Ydieresis" unicode="&#x178;" horiz-adv-x="279" 
d="M80 0v293l-82 451h126l22 -257l22 257h113l-75 -451v-293h-126zM138 851v-93h-89v93h89zM243 851v-93h-90v93h90z" />
    <glyph glyph-name="Zacute" unicode="&#x179;" horiz-adv-x="256" 
d="M78 758l37 95h102l-40 -95h-99zM11 744h233v-104l-101 -526h106v-114h-242v104l99 527h-95v113z" />
    <glyph glyph-name="zacute" unicode="&#x17a;" horiz-adv-x="225" 
d="M64 552l35 116h99l-38 -116h-96zM9 538h207v-88l-78 -348h81v-102h-213v88l81 354h-78v96z" />
    <glyph glyph-name="Zdotaccent" unicode="&#x17b;" horiz-adv-x="256" 
d="M11 744h233v-104l-101 -526h106v-114h-242v104l99 527h-95v113zM190 866v-108h-123v108h123z" />
    <glyph glyph-name="zdotaccent" unicode="&#x17c;" horiz-adv-x="225" 
d="M9 538h207v-88l-78 -348h81v-102h-213v88l81 354h-78v96zM176 668v-116h-123v116h123z" />
    <glyph glyph-name="Zcaron" unicode="&#x17d;" horiz-adv-x="256" 
d="M78 758l-50 95h85l16 -38l17 38h85l-50 -95h-103zM11 744h233v-104l-101 -526h106v-114h-242v104l99 527h-95v113z" />
    <glyph glyph-name="zcaron" unicode="&#x17e;" horiz-adv-x="225" 
d="M64 552l-48 116h82l15 -54l16 54h82l-47 -116h-100zM9 538h207v-88l-78 -348h81v-102h-213v88l81 354h-78v96z" />
    <glyph glyph-name="florin" unicode="&#x192;" horiz-adv-x="209" 
d="M203 368h-43l-17 -535h-121l15 535h-32v97h35l6 209q4 70 75 70h82v-97h-23q-7 0 -9.5 -2.5t-2.5 -10.5l-5 -169h40v-97z" />
    <glyph glyph-name="Aringacute" unicode="&#x1fa;" horiz-adv-x="287" 
d="M152 243l-15 283l-15 -283h30zM165 0l-7 134h-43l-7 -134h-109l62 744h160l67 -744h-123zM93 888l37 95h102l-40 -95h-99zM75 818q0 27 19 44.5t47 17.5t46.5 -17.5t18.5 -44.5q0 -29 -18.5 -46t-46.5 -17t-47 17t-19 46zM141 843q-11 0 -18.5 -7.5t-7.5 -18.5t7.5 -18.5
t18.5 -7.5t18 7.5t7 18.5t-7 18.5t-18 7.5z" />
    <glyph glyph-name="aringacute" unicode="&#x1fb;" horiz-adv-x="282" 
d="M145 93v181q-21 -12 -21 -36v-145q0 -14 11 -14q10 0 10 14zM7 68v167q0 57 50 81q29 14 79 33q9 5 9 14v91q0 13 -11 13h-1q-11 0 -11 -13v-102h-111v103q0 91 116 91h13q61 0 92.5 -20.5t31.5 -69.5v-352q0 -6 6 -6h9v-98h-103q-30 0 -30 44q-28 -49 -75 -49h-2
q-29 0 -45.5 21.5t-16.5 51.5zM87 687l35 116h99l-38 -116h-96zM199 617q0 -28 -18.5 -45.5t-46.5 -17.5t-47 18t-19 45t19 44.5t47 17.5t46.5 -17.5t18.5 -44.5zM108 617q0 -12 7.5 -19t18.5 -7q25 0 25 26q0 25 -25 25q-11 0 -18.5 -7t-7.5 -18z" />
    <glyph glyph-name="AEacute" unicode="&#x1fc;" horiz-adv-x="378" 
d="M172 758l37 95h102l-40 -95h-99zM167 227v334l-29 -334h29zM167 0v118h-39l-10 -118h-121l88 744h283v-114h-77v-181h63v-118h-63v-215h80v-116h-204z" />
    <glyph glyph-name="aeacute" unicode="&#x1fd;" horiz-adv-x="413" 
d="M162 552l35 116h99l-38 -116h-96zM266 451v-118h23v118q0 12 -2 15.5t-10 3.5q-11 0 -11 -19zM405 236v-132q0 -53 -31 -82.5t-85 -29.5h-24q-82 0 -106 54q-36 -51 -85 -51h-2q-31 0 -48 21.5t-17 51.5v155q0 31 12 49.5t38 31.5q34 17 79 33q9 5 9 14v103q0 13 -11 13
h-1q-11 0 -11 -13v-114h-111v115q0 91 114 91h10q51 0 75 -21q21 21 66 21h11q118 0 118 -117v-166h-139v-170q0 -16 11 -16q12 0 12 16v143h116zM145 93v170q-13 -9 -17 -15.5t-4 -20.5v-134q0 -14 11 -14q10 0 10 14z" />
    <glyph glyph-name="Oslashacute" unicode="&#x1fe;" horiz-adv-x="308" 
d="M104 761l36 92h102l-39 -92h-99zM163 -7h-16q-45 0 -74 22l-9 -20h-57l24 59q-21 37 -21 83v469q0 68 33.5 106.5t101.5 38.5h16q43 0 72 -19l7 17h58l-23 -53q23 -35 23 -89v-472q0 -68 -36 -105t-99 -37zM138 535l-3 -164l36 182v65q0 23 -17 23q-16 0 -16 -23v-83z
M154 105q17 0 17 22v83l2 176l-35 -177v-82q0 -22 16 -22z" />
    <glyph glyph-name="oslashacute" unicode="&#x1ff;" horiz-adv-x="285" 
d="M92 556l34 112h99l-37 -112h-96zM144 -8h-3q-44 0 -72 18l-8 -14h-52l23 42q-23 32 -23 86v290q0 132 130 132h6q41 0 69 -18l8 14h54l-26 -41q26 -34 26 -87v-290q0 -132 -132 -132zM142 84q14 0 14 20v50l3 119l-30 -112v-57q0 -20 13 -20zM129 380l-3 -110l30 113v53
q0 21 -14 21q-13 0 -13 -21v-56z" />
    <glyph glyph-name="uni0218" unicode="&#x218;" horiz-adv-x="300" 
d="M184 -166h-53q10 28 12 57h-40v91h98v-66q0 -46 -17 -82zM161 -7h-29q-124 0 -124 115v195h124v-186q0 -20 13 -20q14 0 14 21v145q0 19 -4 29t-18 22l-65 56q-61 51 -61 133v132q0 116 127 116h29q120 0 120 -106v-164h-122v158q0 16 -13 16t-13 -16v-127q0 -23 20 -42
l64 -56q39 -32 54 -62.5t15 -78.5v-148q0 -132 -131 -132z" />
    <glyph glyph-name="uni0219" unicode="&#x219;" horiz-adv-x="261" 
d="M161 -166h-53q10 28 12 57h-40v91h98v-66q0 -46 -17 -82zM142 -8h-30q-105 0 -105 91v130h109v-125q0 -13 11 -13t11 13v99q0 23 -18 36l-53 36q-34 23 -45.5 48t-11.5 61v84q0 94 109 94h27q103 0 103 -82v-109h-106v103q0 14 -10 14q-11 0 -11 -14v-82q0 -12 3 -17.5
t13 -14.5l55 -37q36 -27 48.5 -51.5t12.5 -62.5v-99q0 -50 -29.5 -76t-82.5 -26z" />
    <glyph glyph-name="uni021A" unicode="&#x21a;" horiz-adv-x="255" 
d="M160 -162h-53q10 28 12 57h-40v91h98v-66q0 -46 -17 -82zM65 0v630h-57v114h239v-114h-57v-630h-125z" />
    <glyph glyph-name="uni021B" unicode="&#x21b;" horiz-adv-x="208" 
d="M163 -162h-53q10 28 12 57h-40v91h98v-66q0 -46 -17 -82zM202 0h-116q-18 0 -30.5 12.5t-12.5 36.5v389h-38v100h38v172h123v-172h36v-100h-36v-324q0 -12 11 -12h25v-102z" />
    <glyph glyph-name="uni0237" unicode="&#x237;" horiz-adv-x="141" 
d="M-26 -61h24q11 0 11 12v587h123v-647q0 -28 -15.5 -43t-38.5 -15h-104v106z" />
    <glyph glyph-name="circumflex" unicode="&#x2c6;" horiz-adv-x="219" 
d="M160 668l48 -116h-83l-16 54l-15 -54h-82l47 116h101z" />
    <glyph glyph-name="caron" unicode="&#x2c7;" horiz-adv-x="219" 
d="M60 552l-48 116h82l15 -54l16 54h82l-47 -116h-100z" />
    <glyph glyph-name="breve" unicode="&#x2d8;" horiz-adv-x="219" 
d="M202 650v-12q0 -42 -23.5 -65t-67.5 -23h-2q-92 0 -92 88v12h77v-8q0 -25 15 -25h1q16 0 16 25v8h76z" />
    <glyph glyph-name="dotaccent" unicode="&#x2d9;" horiz-adv-x="219" 
d="M171 668v-116h-123v116h123z" />
    <glyph glyph-name="ring" unicode="&#x2da;" horiz-adv-x="219" 
d="M175 613q0 -28 -18.5 -45.5t-46.5 -17.5t-47 18t-19 45t19 44.5t47 17.5t46.5 -17.5t18.5 -44.5zM84 613q0 -12 7.5 -19t18.5 -7q25 0 25 26q0 25 -25 25q-11 0 -18.5 -7t-7.5 -18z" />
    <glyph glyph-name="ogonek" unicode="&#x2db;" horiz-adv-x="219" 
d="M53 -110v6q0 50 63 104h51q-27 -34 -27 -74v-2q0 -23 20 -23h7v-68h-42q-31 0 -51.5 14.5t-20.5 42.5z" />
    <glyph glyph-name="tilde" unicode="&#x2dc;" horiz-adv-x="219" 
d="M137 656h65v-53q0 -50 -45 -50h-2q-20 0 -46 15q-16 10 -21 10t-5 -8v-19h-66v53q0 23 12 36.5t34 13.5h2q19 0 45 -14q17 -11 22 -11t5 8v19z" />
    <glyph glyph-name="hungarumlaut" unicode="&#x2dd;" horiz-adv-x="219" 
d="M105 552l25 116h82l-26 -116h-81zM9 552l25 116h82l-26 -116h-81z" />
    <glyph glyph-name="Wgrave" unicode="&#x1e80;" horiz-adv-x="442" 
d="M239 853l35 -95h-99l-38 95h102zM206 0h-146l-61 744h131l15 -486l21 486h118l22 -489l15 489h122l-61 -744h-143l-16 424z" />
    <glyph glyph-name="wgrave" unicode="&#x1e81;" horiz-adv-x="411" 
d="M192 0h-136l-57 538h123l13 -351l16 351h111l18 -363l12 363h120l-57 -538h-134l-15 308zM221 668l34 -116h-96l-37 116h99z" />
    <glyph glyph-name="Wacute" unicode="&#x1e82;" horiz-adv-x="442" 
d="M175 758l37 95h102l-40 -95h-99zM206 0h-146l-61 744h131l15 -486l21 486h118l22 -489l15 489h122l-61 -744h-143l-16 424z" />
    <glyph glyph-name="wacute" unicode="&#x1e83;" horiz-adv-x="411" 
d="M158 552l35 116h99l-38 -116h-96zM192 0h-136l-57 538h123l13 -351l16 351h111l18 -363l12 363h120l-57 -538h-134l-15 308z" />
    <glyph glyph-name="Wdieresis" unicode="&#x1e84;" horiz-adv-x="442" 
d="M215 851v-93h-89v93h89zM320 851v-93h-90v93h90zM206 0h-146l-61 744h131l15 -486l21 486h118l22 -489l15 489h122l-61 -744h-143l-16 424z" />
    <glyph glyph-name="wdieresis" unicode="&#x1e85;" horiz-adv-x="411" 
d="M302 647v-95h-89v95h89zM198 647v-95h-89v95h89zM192 0h-136l-57 538h123l13 -351l16 351h111l18 -363l12 363h120l-57 -538h-134l-15 308z" />
    <glyph glyph-name="Ygrave" unicode="&#x1ef2;" horiz-adv-x="279" 
d="M80 0v293l-82 451h126l22 -257l22 257h113l-75 -451v-293h-126zM162 853l35 -95h-99l-38 95h102z" />
    <glyph glyph-name="ygrave" unicode="&#x1ef3;" horiz-adv-x="271" 
d="M28 -167v100h38q10 0 10 11q0 1 0.5 10t0.5 13q0 15 -4 42l-74 529h122l18 -317l13 317h120l-84 -653q-10 -52 -57 -52h-103zM153 668l34 -116h-96l-37 116h99z" />
    <glyph glyph-name="uni2009" unicode="&#x2009;" horiz-adv-x="3" 
 />
    <glyph glyph-name="endash" unicode="&#x2013;" horiz-adv-x="281" 
d="M9 340h263v-78h-263v78z" />
    <glyph glyph-name="emdash" unicode="&#x2014;" horiz-adv-x="424" 
d="M9 340h406v-78h-406v78z" />
    <glyph glyph-name="quoteleft" unicode="&#x2018;" horiz-adv-x="116" 
d="M30 744h58q-17 -46 -18 -74h37v-109h-98v85q0 48 21 98z" />
    <glyph glyph-name="quoteright" unicode="&#x2019;" horiz-adv-x="116" 
d="M85 561h-57q17 46 17 74h-36v109h98v-85q0 -52 -22 -98z" />
    <glyph glyph-name="quotesinglbase" unicode="&#x201a;" horiz-adv-x="116" 
d="M107 109v-85q0 -52 -22 -98h-57q17 46 17 74h-36v109h98z" />
    <glyph glyph-name="quotedblleft" unicode="&#x201c;" horiz-adv-x="224" 
d="M139 744h57q-17 -46 -17 -74h36v-109h-98v85q0 52 22 98zM30 744h58q-17 -46 -18 -74h37v-109h-98v85q0 48 21 98z" />
    <glyph glyph-name="quotedblright" unicode="&#x201d;" horiz-adv-x="224" 
d="M194 561h-58q17 45 18 74h-37v109h98v-85q0 -48 -21 -98zM85 561h-57q17 46 17 74h-36v109h98v-85q0 -52 -22 -98z" />
    <glyph glyph-name="quotedblbase" unicode="&#x201e;" horiz-adv-x="224" 
d="M215 109v-85q0 -48 -21 -98h-58q17 46 18 74h-37v109h98zM107 109v-85q0 -52 -22 -98h-57q17 46 17 74h-36v109h98z" />
    <glyph glyph-name="dagger" unicode="&#x2020;" horiz-adv-x="221" 
d="M50 0v540h-43l1 101h43l-1 103h121v-104h43v-100h-43v-540h-121z" />
    <glyph glyph-name="daggerdbl" unicode="&#x2021;" horiz-adv-x="221" 
d="M50 106h-43v101h43v333h-43v100h43v104h121v-104h43v-100h-43v-333h43v-101h-43v-106h-121v106z" />
    <glyph glyph-name="bullet" unicode="&#x2022;" horiz-adv-x="198" 
d="M99 238q-41 0 -67 26t-26 66t26 65.5t67 25.5q42 0 67.5 -25.5t25.5 -65.5t-25.5 -66t-67.5 -26z" />
    <glyph glyph-name="ellipsis" unicode="&#x2026;" horiz-adv-x="374" 
d="M116 0h-107v128h107v-128zM133 0v128h107v-128h-107zM257 128h108v-128h-108v128z" />
    <glyph glyph-name="perthousand" unicode="&#x2030;" horiz-adv-x="586" 
d="M9 500v166q0 84 81 84h13q82 0 82 -84v-166q0 -41 -22 -62t-61 -21h-12q-81 0 -81 83zM271 744h71l-214 -744h-72zM105 487v193q0 11 -8 11t-8 -11v-193q0 -10 8 -10t8 10zM307 -5h-12q-82 0 -82 84v166q0 83 81 83h14q82 0 82 -83v-166q0 -41 -22 -62.5t-61 -21.5z
M494 -5h-12q-81 0 -81 84v166q0 83 81 83h13q82 0 82 -83v-166q0 -41 -22 -62.5t-61 -21.5zM302 55q7 0 7 10v194q0 10 -7 10q-8 0 -8 -10v-194q0 -10 8 -10zM489 55q8 0 8 10v194q0 10 -8 10t-8 -10v-194q0 -10 8 -10z" />
    <glyph glyph-name="uni2032" unicode="&#x2032;" horiz-adv-x="101" 
d="M99 744l-15 -158h-82l15 158h82z" />
    <glyph glyph-name="uni2033" unicode="&#x2033;" horiz-adv-x="190" 
d="M188 744l-15 -158h-80l15 158h80zM97 744l-15 -158h-80l14 158h81z" />
    <glyph glyph-name="guilsinglleft" unicode="&#x2039;" horiz-adv-x="138" 
d="M100 279l31 -150h-92l-32 127v47l32 123h93z" />
    <glyph glyph-name="guilsinglright" unicode="&#x203a;" horiz-adv-x="138" 
d="M38 279l-32 147h92l33 -123v-47l-33 -127h-91z" />
    <glyph glyph-name="fraction" unicode="&#x2044;" horiz-adv-x="281" 
d="M209 744h71l-209 -744h-70z" />
    <glyph glyph-name="Euro" unicode="&#x20ac;" horiz-adv-x="327" 
d="M192 -7h-18q-72 0 -103.5 35t-31.5 104v183h-35v66h35v13h-35v65h35v156q0 135 132 135h22q64 0 94.5 -32t30.5 -88v-159h-124v154q0 20 -13 20t-13 -20v-166h78v-65h-78v-13h78v-66h-78v-192q0 -21 13 -21t13 21v180h124v-183q0 -55 -31.5 -91t-94.5 -36z" />
    <glyph glyph-name="published" unicode="&#x2117;" horiz-adv-x="389" 
d="M200 -7h-10q-180 0 -180 177v406q0 86 48 130.5t133 44.5h10q82 0 130 -44t48 -131v-405q0 -88 -50 -133t-129 -45zM68 564v-384q0 -72 29.5 -105.5t93.5 -33.5h8q123 0 123 140v383q0 72 -29.5 105.5t-92.5 33.5h-9q-64 0 -93.5 -32.5t-29.5 -106.5zM234 324h-42v-243
h-90v585h130q68 0 68 -73v-195q0 -36 -18 -55t-48 -19zM192 598v-204h9q9 0 9 14v177q0 13 -9 13h-9z" />
    <glyph glyph-name="trademark" unicode="&#x2122;" horiz-adv-x="283" 
d="M110 691h-20v-235h-64v235h-20v53h104v-53zM169 622v-166h-51v288h71l7 -100l3 -38l2 39l5 99h68v-288h-51v110l1 56l-6 -54l-10 -112h-25l-9 113z" />
    <glyph glyph-name="onethird" unicode="&#x2153;" horiz-adv-x="351" 
d="M33 656h-28v62q34 0 36 26h72v-343h-79zM219 744h71l-209 -744h-70zM248 223h-73v64q0 60 75 60h10q81 0 81 -59v-57q0 -30 -27 -40q32 -11 32 -47v-77q0 -72 -84 -72h-11q-77 0 -77 65v79h76v-75q0 -9 7 -9q6 0 6 9v81q0 7 -7 7h-35v59h34q7 0 7 7v67q0 8 -7 8t-7 -8
v-62z" />
    <glyph glyph-name="twothirds" unicode="&#x2154;" horiz-adv-x="416" 
d="M180 401h-174v52q0 36 10.5 58t48.5 73q2 4 6 10q25 48 26 64v24q0 10 -7 10t-7 -10v-56h-74v53q0 69 75 69h12q82 0 82 -66v-23q0 -32 -10.5 -50.5t-45.5 -57.5q-31 -37 -37 -47.5t-6 -28.5v-15h32v62h69v-121zM285 744h71l-209 -744h-70zM314 223h-73v64q0 60 75 60h10
q81 0 81 -59v-57q0 -30 -27 -40q32 -11 32 -47v-77q0 -72 -84 -72h-11q-77 0 -77 65v79h76v-75q0 -9 7 -9q6 0 6 9v81q0 7 -7 7h-35v59h34q7 0 7 7v67q0 8 -7 8t-7 -8v-62z" />
    <glyph glyph-name="oneeighth" unicode="&#x215b;" horiz-adv-x="349" 
d="M33 656h-28v62q34 0 36 26h72v-343h-79zM219 744h71l-209 -744h-70zM343 283v-57q0 -31 -27 -43q29 -11 29 -46v-73q0 -68 -80 -68h-12q-81 0 -81 68v73q0 31 28 46q-25 16 -25 43v57q0 64 78 64h12q38 0 58 -17t20 -47zM266 219v61q0 12 -8 12q-7 0 -7 -12v-61
q0 -12 7 -12q8 0 8 12zM266 67v78q0 12 -8 12q-7 0 -7 -12v-78q0 -12 7 -12q8 0 8 12z" />
    <glyph glyph-name="threeeighths" unicode="&#x215c;" horiz-adv-x="399" 
d="M80 624h-73v64q0 60 75 60h10q81 0 81 -59v-57q0 -30 -27 -40q32 -11 32 -47v-77q0 -72 -84 -72h-11q-77 0 -77 65v79h76v-75q0 -9 7 -9q6 0 6 9v81q0 7 -7 7h-35v59h34q7 0 7 7v67q0 8 -7 8t-7 -8v-62zM270 744h71l-209 -744h-70zM393 283v-57q0 -31 -27 -43
q29 -11 29 -46v-73q0 -68 -80 -68h-12q-81 0 -81 68v73q0 31 28 46q-25 16 -25 43v57q0 64 78 64h12q38 0 58 -17t20 -47zM316 219v61q0 12 -8 12q-7 0 -7 -12v-61q0 -12 7 -12q8 0 8 12zM316 67v78q0 12 -8 12q-7 0 -7 -12v-78q0 -12 7 -12q8 0 8 12z" />
    <glyph glyph-name="fiveeighths" unicode="&#x215d;" horiz-adv-x="398" 
d="M83 555h-73v189h160v-61h-89v-63q20 27 46 27h4q47 0 47 -55v-123q0 -72 -83 -72h-11q-78 0 -78 65v69h77v-68q0 -9 6 -9q7 0 7 9v119q0 9 -7 9q-6 0 -6 -9v-27zM269 744h71l-209 -744h-70zM392 283v-57q0 -31 -27 -43q29 -11 29 -46v-73q0 -68 -80 -68h-12q-81 0 -81 68
v73q0 31 28 46q-25 16 -25 43v57q0 64 78 64h12q38 0 58 -17t20 -47zM315 219v61q0 12 -8 12q-7 0 -7 -12v-61q0 -12 7 -12q8 0 8 12zM315 67v78q0 12 -8 12q-7 0 -7 -12v-78q0 -12 7 -12q8 0 8 12z" />
    <glyph glyph-name="seveneighths" unicode="&#x215e;" horiz-adv-x="369" 
d="M6 744h158v-37q0 -20 -22 -160q-8 -58 -8 -128v-18h-92v16q0 64 22 129q22 70 27.5 94.5t5.5 51.5h-23v-71h-68v123zM239 744h71l-209 -744h-70zM363 283v-57q0 -31 -27 -43q29 -11 29 -46v-73q0 -68 -80 -68h-12q-81 0 -81 68v73q0 31 28 46q-25 16 -25 43v57
q0 64 78 64h12q38 0 58 -17t20 -47zM286 219v61q0 12 -8 12q-7 0 -7 -12v-61q0 -12 7 -12q8 0 8 12zM286 67v78q0 12 -8 12q-7 0 -7 -12v-78q0 -12 7 -12q8 0 8 12z" />
    <glyph glyph-name="minus" unicode="&#x2212;" horiz-adv-x="225" 
d="M9 339h207v-72h-207v72z" />
    <glyph glyph-name="f_b" unicode="&#xe227;" horiz-adv-x="495" 
d="M203 744v-97h-25q-11 0 -11 -12v-97h35v-100h-35v-438h-123v438h-39v100h39v140q0 32 19 49t46 17h94zM215 744h123v-252q35 49 78 49h4q32 0 49 -23.5t17 -60.5v-373q0 -36 -21 -63t-53 -27h-2q-48 0 -83 55q-5 -20 -7 -49h-105v744zM349 80q12 0 12 16v343q0 16 -11 16
q-12 0 -12 -16v-342q0 -17 11 -17z" />
    <glyph glyph-name="f_f_b" unicode="&#xe228;" horiz-adv-x="662" 
d="M167 0h-123v438h-39v100h39v140q0 32 19 49t46 17h92v-97h-23q-11 0 -11 -12v-97h44v140q0 32 19 49t46 17h94v-97h-24q-11 0 -11 -12v-97h35v-100h-35v-438h-124v438h-44v-438zM382 744h123v-252q35 49 78 49h4q32 0 49 -23.5t17 -60.5v-373q0 -36 -21 -63t-53 -27h-2
q-48 0 -83 55q-5 -20 -7 -49h-105v744zM516 80q12 0 12 16v343q0 16 -11 16q-12 0 -12 -16v-342q0 -17 11 -17z" />
    <glyph glyph-name="f_f_h" unicode="&#xe229;" horiz-adv-x="663" 
d="M167 0h-123v438h-39v100h39v140q0 32 19 49t46 17h92v-97h-23q-11 0 -11 -12v-97h44v140q0 32 19 49t46 17h94v-97h-24q-11 0 -11 -12v-97h35v-100h-35v-438h-124v438h-44v-438zM382 0v744h123v-251q35 50 80 50h4q34 0 49.5 -21.5t15.5 -48.5v-473h-124v434q0 17 -13 17
q-12 0 -12 -18v-433h-123z" />
    <glyph glyph-name="f_f_j" unicode="&#xe22a;" horiz-adv-x="514" 
d="M167 0h-123v438h-39v100h39v140q0 32 19 49t46 17h92v-97h-23q-11 0 -11 -12v-97h44v140q0 32 19 49t46 17h94v-97h-24q-11 0 -11 -12v-97h35v-100h-35v-438h-124v438h-44v-438zM505 668v-116h-123v116h123zM347 -61h24q11 0 11 12v587h123v-647q0 -28 -15.5 -43
t-38.5 -15h-104v106z" />
    <glyph glyph-name="f_f_k" unicode="&#xe22b;" horiz-adv-x="656" 
d="M167 0h-123v438h-39v100h39v140q0 32 19 49t46 17h92v-97h-23q-11 0 -11 -12v-97h44v140q0 32 19 49t46 17h94v-97h-24q-11 0 -11 -12v-97h35v-100h-35v-438h-124v438h-44v-438zM505 0h-123v744h123v-381l30 175h116l-45 -227l51 -311h-120l-33 222z" />
    <glyph glyph-name="f_h" unicode="&#xe22c;" horiz-adv-x="496" 
d="M203 744v-97h-25q-11 0 -11 -12v-97h35v-100h-35v-438h-123v438h-39v100h39v140q0 32 19 49t46 17h94zM215 0v744h123v-251q35 50 80 50h4q34 0 49.5 -21.5t15.5 -48.5v-473h-124v434q0 17 -13 17q-12 0 -12 -18v-433h-123z" />
    <glyph glyph-name="f_j" unicode="&#xe22d;" horiz-adv-x="347" 
d="M203 744v-97h-25q-11 0 -11 -12v-97h35v-100h-35v-438h-123v438h-39v100h39v140q0 32 19 49t46 17h94zM338 668v-116h-123v116h123zM180 -61h24q11 0 11 12v587h123v-647q0 -28 -15.5 -43t-38.5 -15h-104v106z" />
    <glyph glyph-name="f_k" unicode="&#xe22e;" horiz-adv-x="489" 
d="M203 744v-97h-25q-11 0 -11 -12v-97h35v-100h-35v-438h-123v438h-39v100h39v140q0 32 19 49t46 17h94zM338 0h-123v744h123v-381l30 175h116l-45 -227l51 -311h-120l-33 222z" />
    <glyph glyph-name="E.alt" unicode="&#xe484;" horiz-adv-x="234" 
d="M10 744h214v-114h-88v-182h86v-117h-86v-215h90v-116h-216v744z" />
    <glyph glyph-name="F.alt" unicode="&#xe485;" horiz-adv-x="232" 
d="M10 744h213v-114h-87v-181h85v-118h-85v-331h-126v744z" />
    <glyph glyph-name="J.alt" unicode="&#xe489;" horiz-adv-x="200" 
d="M7 0v117h34q18 0 18 21v606h131v-649q0 -45 -22 -70t-64 -25h-97z" />
    <glyph glyph-name="a.alt" unicode="&#xe4c0;" horiz-adv-x="273" 
d="M145 93v181q-13 -8 -17 -15t-4 -21v-145q0 -14 11 -14q10 0 10 14zM146 44q-28 -49 -75 -49h-2q-29 0 -45.5 21.5t-16.5 51.5v167q0 57 50 81q29 14 79 33q9 5 9 14v91q0 13 -11 13h-1q-11 0 -11 -13v-102h-111v103q0 91 116 91h13q61 0 92.5 -20.5t31.5 -69.5v-366
q0 -74 6 -86v-4h-118q-6 10 -6 44z" />
    <glyph glyph-name="r.alt" unicode="&#xe4d1;" horiz-adv-x="222" 
d="M131 538v-60q19 63 61 63h3q12 0 21 -3v-139q-12 5 -38 5h-5q-41 0 -41 -30v-374h-123v538h122z" />
    <glyph glyph-name="f_f_i" unicode="&#xfb03;" horiz-adv-x="514" 
d="M167 0h-123v438h-39v100h39v140q0 32 19 49t46 17h92v-97h-23q-11 0 -11 -12v-97h44v140q0 32 19 49t46 17h94v-97h-24q-11 0 -11 -12v-97h35v-100h-35v-438h-124v438h-44v-438zM505 668v-116h-123v116h123zM505 538v-538h-123v538h123z" />
    <glyph glyph-name="f_f_l" unicode="&#xfb04;" horiz-adv-x="514" 
d="M167 0h-123v438h-39v100h39v140q0 32 19 49t46 17h92v-97h-23q-11 0 -11 -12v-97h44v140q0 32 19 49t46 17h94v-97h-24q-11 0 -11 -12v-97h35v-100h-35v-438h-124v438h-44v-438zM505 744v-744h-123v744h123z" />
    <glyph glyph-name="idotaccent" horiz-adv-x="141" 
d="M132 668v-116h-123v116h123zM132 538v-538h-123v538h123z" />
    <glyph glyph-name="space_uni0326" horiz-adv-x="219" 
d="M142 -162h-53q10 28 12 57h-40v91h98v-66q0 -46 -17 -82z" />
    <glyph glyph-name="zero.num" horiz-adv-x="202" 
d="M95 748h13q86 0 86 -85v-180q0 -35 -21 -60.5t-65 -25.5h-13q-47 0 -67 25t-20 61v180q0 36 20 60.5t67 24.5zM109 479v190q0 11 -8 11t-8 -11v-190q0 -11 8 -11t8 11z" />
    <glyph glyph-name="one.num" horiz-adv-x="122" 
d="M33 656h-28v62q34 0 36 26h72v-343h-79z" />
    <glyph glyph-name="two.num" horiz-adv-x="186" 
d="M180 401h-174v52q0 36 10.5 58t48.5 73q2 4 6 10q25 48 26 64v24q0 10 -7 10t-7 -10v-56h-74v53q0 69 75 69h12q82 0 82 -66v-23q0 -32 -10.5 -50.5t-45.5 -57.5q-31 -37 -37 -47.5t-6 -28.5v-15h32v62h69v-121z" />
    <glyph glyph-name="three.num" horiz-adv-x="184" 
d="M80 624h-73v64q0 60 75 60h10q81 0 81 -59v-57q0 -30 -27 -40q32 -11 32 -47v-77q0 -72 -84 -72h-11q-77 0 -77 65v79h76v-75q0 -9 7 -9q6 0 6 9v81q0 7 -7 7h-35v59h34q7 0 7 7v67q0 8 -7 8t-7 -8v-62z" />
    <glyph glyph-name="four.num" horiz-adv-x="171" 
d="M5 454v57l54 234h86v-225h21v-66h-21v-53h-76v53h-64zM53 520h16v122z" />
    <glyph glyph-name="five.num" horiz-adv-x="186" 
d="M83 555h-73v189h160v-61h-89v-63q20 27 46 27h4q47 0 47 -55v-123q0 -72 -83 -72h-11q-78 0 -78 65v69h77v-68q0 -9 6 -9q7 0 7 9v119q0 9 -7 9q-6 0 -6 -9v-27z" />
    <glyph glyph-name="six.num" horiz-adv-x="197" 
d="M91 679v-83q18 25 49 25h2q48 0 48 -53v-92q0 -39 -22 -59t-62 -20h-14q-84 0 -84 79v195q0 77 84 77h11q83 0 83 -72v-44h-82v47q0 10 -6 10q-7 0 -7 -10zM91 557v-89q0 -12 8 -12q7 0 7 12v89q0 12 -7 12q-8 0 -8 -12z" />
    <glyph glyph-name="seven.num" horiz-adv-x="170" 
d="M6 744h158v-37q0 -20 -22 -160q-8 -58 -8 -128v-18h-92v16q0 64 22 129q22 70 27.5 94.5t5.5 51.5h-23v-71h-68v123z" />
    <glyph glyph-name="eight.num" horiz-adv-x="185" 
d="M177 684v-57q0 -31 -27 -43q29 -11 29 -46v-73q0 -68 -80 -68h-12q-81 0 -81 68v73q0 31 28 46q-25 16 -25 43v57q0 64 78 64h12q38 0 58 -17t20 -47zM100 620v61q0 12 -8 12q-7 0 -7 -12v-61q0 -12 7 -12q8 0 8 12zM100 468v78q0 12 -8 12q-7 0 -7 -12v-78q0 -12 7 -12
q8 0 8 12z" />
    <glyph glyph-name="nine.num" horiz-adv-x="197" 
d="M98 689q-7 0 -7 -12v-89q0 -12 7 -12q8 0 8 12v89q0 12 -8 12zM7 580v91q0 77 84 77h14q84 0 84 -78v-195q0 -78 -84 -78h-12q-81 0 -81 70v46h80v-47q0 -10 7 -10t7 10v83q-21 -24 -46 -24h-3q-50 0 -50 55z" />
    <glyph glyph-name="zero.den" horiz-adv-x="202" 
d="M95 347h13q86 0 86 -85v-180q0 -35 -21 -60.5t-65 -25.5h-13q-47 0 -67 25t-20 61v180q0 36 20 60.5t67 24.5zM109 78v190q0 11 -8 11t-8 -11v-190q0 -11 8 -11t8 11z" />
    <glyph glyph-name="one.den" horiz-adv-x="122" 
d="M33 255h-28v62q34 0 36 26h72v-343h-79z" />
    <glyph glyph-name="two.den" horiz-adv-x="186" 
d="M180 0h-174v52q0 36 10.5 58t48.5 73q2 4 6 10q25 48 26 64v24q0 10 -7 10t-7 -10v-56h-74v53q0 69 75 69h12q82 0 82 -66v-23q0 -32 -10.5 -50.5t-45.5 -57.5q-31 -37 -37 -47.5t-6 -28.5v-15h32v62h69v-121z" />
    <glyph glyph-name="three.den" horiz-adv-x="184" 
d="M80 223h-73v64q0 60 75 60h10q81 0 81 -59v-57q0 -30 -27 -40q32 -11 32 -47v-77q0 -72 -84 -72h-11q-77 0 -77 65v79h76v-75q0 -9 7 -9q6 0 6 9v81q0 7 -7 7h-35v59h34q7 0 7 7v67q0 8 -7 8t-7 -8v-62z" />
    <glyph glyph-name="four.den" horiz-adv-x="171" 
d="M5 53v57l54 234h86v-225h21v-66h-21v-53h-76v53h-64zM53 119h16v122z" />
    <glyph glyph-name="five.den" horiz-adv-x="186" 
d="M83 154h-73v189h160v-61h-89v-63q20 27 46 27h4q47 0 47 -55v-123q0 -72 -83 -72h-11q-78 0 -78 65v69h77v-68q0 -9 6 -9q7 0 7 9v119q0 9 -7 9q-6 0 -6 -9v-27z" />
    <glyph glyph-name="six.den" horiz-adv-x="197" 
d="M91 278v-83q18 25 49 25h2q48 0 48 -53v-92q0 -39 -22 -59t-62 -20h-14q-84 0 -84 79v195q0 77 84 77h11q83 0 83 -72v-44h-82v47q0 10 -6 10q-7 0 -7 -10zM91 156v-89q0 -12 8 -12q7 0 7 12v89q0 12 -7 12q-8 0 -8 -12z" />
    <glyph glyph-name="seven.den" horiz-adv-x="170" 
d="M6 343h158v-37q0 -20 -22 -160q-8 -58 -8 -128v-18h-92v16q0 64 22 129q22 70 27.5 94.5t5.5 51.5h-23v-71h-68v123z" />
    <glyph glyph-name="eight.den" horiz-adv-x="185" 
d="M177 283v-57q0 -31 -27 -43q29 -11 29 -46v-73q0 -68 -80 -68h-12q-81 0 -81 68v73q0 31 28 46q-25 16 -25 43v57q0 64 78 64h12q38 0 58 -17t20 -47zM100 219v61q0 12 -8 12q-7 0 -7 -12v-61q0 -12 7 -12q8 0 8 12zM100 67v78q0 12 -8 12q-7 0 -7 -12v-78q0 -12 7 -12
q8 0 8 12z" />
    <glyph glyph-name="nine.den" horiz-adv-x="197" 
d="M98 288q-7 0 -7 -12v-89q0 -12 7 -12q8 0 8 12v89q0 12 -8 12zM7 179v91q0 77 84 77h14q84 0 84 -78v-195q0 -78 -84 -78h-12q-81 0 -81 70v46h80v-47q0 -10 7 -10t7 10v83q-21 -24 -46 -24h-3q-50 0 -50 55z" />
    <glyph glyph-name="zero.sub" horiz-adv-x="202" 
d="M95 220h13q86 0 86 -85v-180q0 -35 -21 -60.5t-65 -25.5h-13q-47 0 -67 25t-20 61v180q0 36 20 60.5t67 24.5zM109 -49v190q0 11 -8 11t-8 -11v-190q0 -11 8 -11t8 11z" />
    <glyph glyph-name="one.sub" horiz-adv-x="122" 
d="M33 129h-28v62q34 0 36 26h72v-344h-79z" />
    <glyph glyph-name="two.sub" horiz-adv-x="186" 
d="M180 -127h-174v52q0 36 10.5 58t48.5 73q2 4 6 10q25 48 26 64v24q0 10 -7 10t-7 -10v-56h-74v53q0 69 75 69h12q82 0 82 -66v-23q0 -32 -10.5 -50.5t-45.5 -57.5q-31 -37 -37 -47.5t-6 -28.5v-15h32v62h69v-121z" />
    <glyph glyph-name="three.sub" horiz-adv-x="184" 
d="M80 96h-73v64q0 60 75 60h10q81 0 81 -59v-57q0 -30 -27 -40q32 -11 32 -47v-77q0 -72 -84 -72h-11q-77 0 -77 65v79h76v-75q0 -9 7 -9q6 0 6 9v81q0 7 -7 7h-35v59h34q7 0 7 7v67q0 8 -7 8t-7 -8v-62z" />
    <glyph glyph-name="four.sub" horiz-adv-x="171" 
d="M5 -74v57l54 234h86v-225h21v-66h-21v-53h-76v53h-64zM53 -8h16v122z" />
    <glyph glyph-name="five.sub" horiz-adv-x="186" 
d="M83 27h-73v189h160v-61h-89v-63q20 27 46 27h4q47 0 47 -55v-123q0 -72 -83 -72h-11q-78 0 -78 65v69h77v-68q0 -9 6 -9q7 0 7 9v119q0 9 -7 9q-6 0 -6 -9v-27z" />
    <glyph glyph-name="six.sub" horiz-adv-x="197" 
d="M91 151v-83q18 25 49 25h2q48 0 48 -53v-92q0 -39 -22 -59t-62 -20h-14q-84 0 -84 79v195q0 77 84 77h11q83 0 83 -72v-44h-82v47q0 10 -6 10q-7 0 -7 -10zM91 29v-89q0 -12 8 -12q7 0 7 12v89q0 12 -7 12q-8 0 -8 -12z" />
    <glyph glyph-name="seven.sub" horiz-adv-x="170" 
d="M6 216h158v-37q0 -20 -22 -160q-8 -58 -8 -128v-18h-92v16q0 64 22 129q22 70 27.5 94.5t5.5 51.5h-23v-71h-68v123z" />
    <glyph glyph-name="eight.sub" horiz-adv-x="185" 
d="M177 156v-57q0 -31 -27 -43q29 -11 29 -46v-73q0 -68 -80 -68h-12q-81 0 -81 68v73q0 31 28 46q-25 16 -25 43v57q0 64 78 64h12q38 0 58 -17t20 -47zM100 92v61q0 12 -8 12q-7 0 -7 -12v-61q0 -12 7 -12q8 0 8 12zM100 -60v78q0 12 -8 12q-7 0 -7 -12v-78q0 -12 7 -12
q8 0 8 12z" />
    <glyph glyph-name="nine.sub" horiz-adv-x="197" 
d="M98 161q-7 0 -7 -12v-89q0 -12 7 -12q8 0 8 12v89q0 12 -8 12zM7 52v91q0 77 84 77h14q84 0 84 -78v-195q0 -78 -84 -78h-12q-81 0 -81 70v46h80v-47q0 -10 7 -10t7 10v83q-21 -24 -46 -24h-3q-50 0 -50 55z" />
    <glyph glyph-name="zero.sup" horiz-adv-x="202" 
d="M95 748h13q86 0 86 -85v-180q0 -35 -21 -60.5t-65 -25.5h-13q-47 0 -67 25t-20 61v180q0 36 20 60.5t67 24.5zM109 479v190q0 11 -8 11t-8 -11v-190q0 -11 8 -11t8 11z" />
    <glyph glyph-name="one.sup" horiz-adv-x="122" 
d="M33 656h-28v62q34 0 36 26h72v-343h-79z" />
    <glyph glyph-name="two.sup" horiz-adv-x="186" 
d="M180 401h-174v52q0 36 10.5 58t48.5 73q2 4 6 10q25 48 26 64v24q0 10 -7 10t-7 -10v-56h-74v53q0 69 75 69h12q82 0 82 -66v-23q0 -32 -10.5 -50.5t-45.5 -57.5q-31 -37 -37 -47.5t-6 -28.5v-15h32v62h69v-121z" />
    <glyph glyph-name="three.sup" horiz-adv-x="184" 
d="M80 624h-73v64q0 60 75 60h10q81 0 81 -59v-57q0 -30 -27 -40q32 -11 32 -47v-77q0 -72 -84 -72h-11q-77 0 -77 65v79h76v-75q0 -9 7 -9q6 0 6 9v81q0 7 -7 7h-35v59h34q7 0 7 7v67q0 8 -7 8t-7 -8v-62z" />
    <glyph glyph-name="four.sup" horiz-adv-x="171" 
d="M5 454v57l54 234h86v-225h21v-66h-21v-53h-76v53h-64zM53 520h16v122z" />
    <glyph glyph-name="five.sup" horiz-adv-x="186" 
d="M83 555h-73v189h160v-61h-89v-63q20 27 46 27h4q47 0 47 -55v-123q0 -72 -83 -72h-11q-78 0 -78 65v69h77v-68q0 -9 6 -9q7 0 7 9v119q0 9 -7 9q-6 0 -6 -9v-27z" />
    <glyph glyph-name="six.sup" horiz-adv-x="197" 
d="M91 679v-83q18 25 49 25h2q48 0 48 -53v-92q0 -39 -22 -59t-62 -20h-14q-84 0 -84 79v195q0 77 84 77h11q83 0 83 -72v-44h-82v47q0 10 -6 10q-7 0 -7 -10zM91 557v-89q0 -12 8 -12q7 0 7 12v89q0 12 -7 12q-8 0 -8 -12z" />
    <glyph glyph-name="seven.sup" horiz-adv-x="170" 
d="M6 744h158v-37q0 -20 -22 -160q-8 -58 -8 -128v-18h-92v16q0 64 22 129q22 70 27.5 94.5t5.5 51.5h-23v-71h-68v123z" />
    <glyph glyph-name="eight.sup" horiz-adv-x="185" 
d="M177 684v-57q0 -31 -27 -43q29 -11 29 -46v-73q0 -68 -80 -68h-12q-81 0 -81 68v73q0 31 28 46q-25 16 -25 43v57q0 64 78 64h12q38 0 58 -17t20 -47zM100 620v61q0 12 -8 12q-7 0 -7 -12v-61q0 -12 7 -12q8 0 8 12zM100 468v78q0 12 -8 12q-7 0 -7 -12v-78q0 -12 7 -12
q8 0 8 12z" />
    <glyph glyph-name="nine.sup" horiz-adv-x="197" 
d="M98 689q-7 0 -7 -12v-89q0 -12 7 -12q8 0 8 12v89q0 12 -8 12zM7 580v91q0 77 84 77h14q84 0 84 -78v-195q0 -78 -84 -78h-12q-81 0 -81 70v46h80v-47q0 -10 7 -10t7 10v83q-21 -24 -46 -24h-3q-50 0 -50 55z" />
    <glyph glyph-name="IJ.alt" horiz-adv-x="345" 
d="M137 744v-744h-127v744h127zM152 0v117h34q18 0 18 21v606h131v-649q0 -45 -22 -70t-64 -25h-97z" />
    <glyph glyph-name="a.alt2" 
d="M145 82q13 0 13 17v337q0 18 -13 18q-11 0 -11 -17v-338q0 -17 11 -17zM158 538h123v-538h-123v43q-35 -50 -74 -50h-3q-32 0 -52 27t-20 66v370q0 37 18.5 61t48.5 24h4q18 0 33 -7t23.5 -14.5t21.5 -23.5v42z" />
    <glyph glyph-name="Eacute.alt" horiz-adv-x="234" 
d="M70 758l37 95h102l-40 -95h-99zM10 744h214v-114h-88v-182h86v-117h-86v-215h90v-116h-216v744z" />
    <glyph glyph-name="Ebreve.alt" horiz-adv-x="234" 
d="M212 849v-9q0 -37 -24 -61t-67 -24h-3q-44 0 -67.5 24t-23.5 61v9h77v-8q0 -19 15 -19h1q16 0 16 19v8h76zM10 744h214v-114h-88v-182h86v-117h-86v-215h90v-116h-216v744z" />
    <glyph glyph-name="Ecaron.alt" horiz-adv-x="234" 
d="M70 758l-50 95h85l16 -38l17 38h85l-50 -95h-103zM10 744h214v-114h-88v-182h86v-117h-86v-215h90v-116h-216v744z" />
    <glyph glyph-name="Ecircumflex.alt" horiz-adv-x="234" 
d="M170 853l50 -95h-85l-17 37l-16 -37h-85l50 95h103zM10 744h214v-114h-88v-182h86v-117h-86v-215h90v-116h-216v744z" />
    <glyph glyph-name="Edieresis.alt" horiz-adv-x="234" 
d="M111 851v-93h-89v93h89zM216 851v-93h-90v93h90zM10 744h214v-114h-88v-182h86v-117h-86v-215h90v-116h-216v744z" />
    <glyph glyph-name="Edotaccent.alt" horiz-adv-x="234" 
d="M181 866v-108h-123v108h123zM10 744h214v-114h-88v-182h86v-117h-86v-215h90v-116h-216v744z" />
    <glyph glyph-name="Egrave.alt" horiz-adv-x="234" 
d="M137 853l35 -95h-99l-38 95h102zM10 744h214v-114h-88v-182h86v-117h-86v-215h90v-116h-216v744z" />
    <glyph glyph-name="Emacron.alt" horiz-adv-x="234" 
d="M37 762v77h165v-77h-165zM10 744h214v-114h-88v-182h86v-117h-86v-215h90v-116h-216v744z" />
    <glyph glyph-name="Eogonek.alt" horiz-adv-x="234" 
d="M81 -110v6q0 50 63 104h51q-27 -34 -27 -74v-2q0 -23 21 -23h7v-68h-43q-31 0 -51.5 14.5t-20.5 42.5zM10 744h214v-114h-88v-182h86v-117h-86v-215h90v-116h-216v744z" />
    <glyph glyph-name="Jcircumflex.alt" horiz-adv-x="200" 
d="M176 853l50 -95h-85l-17 37l-16 -37h-85l50 95h103zM7 0v117h34q18 0 18 21v606h131v-649q0 -45 -22 -70t-64 -25h-97z" />
    <glyph glyph-name="aacute.alt" horiz-adv-x="273" 
d="M88 555l33 113h99l-36 -113h-96zM145 93v181q-13 -8 -17 -15t-4 -21v-145q0 -14 11 -14q10 0 10 14zM146 44q-28 -49 -75 -49h-2q-29 0 -45.5 21.5t-16.5 51.5v167q0 57 50 81q29 14 79 33q9 5 9 14v91q0 13 -11 13h-1q-11 0 -11 -13v-102h-111v103q0 91 116 91h13
q61 0 92.5 -20.5t31.5 -69.5v-366q0 -74 6 -86v-4h-118q-6 10 -6 44z" />
    <glyph glyph-name="aacute.alt2" 
d="M96 552l35 116h99l-38 -116h-96zM145 82q13 0 13 17v337q0 18 -13 18q-11 0 -11 -17v-338q0 -17 11 -17zM158 538h123v-538h-123v43q-35 -50 -74 -50h-3q-32 0 -52 27t-20 66v370q0 37 18.5 61t48.5 24h4q18 0 33 -7t23.5 -14.5t21.5 -23.5v42z" />
    <glyph glyph-name="abreve.alt" horiz-adv-x="273" 
d="M145 93v181q-13 -8 -17 -15t-4 -21v-145q0 -14 11 -14q10 0 10 14zM146 44q-28 -49 -75 -49h-2q-29 0 -45.5 21.5t-16.5 51.5v167q0 57 50 81q29 14 79 33q9 5 9 14v91q0 13 -11 13h-1q-11 0 -11 -13v-102h-111v103q0 91 116 91h13q61 0 92.5 -20.5t31.5 -69.5v-366
q0 -74 6 -86v-4h-118q-6 10 -6 44zM226 654v-12q0 -42 -23.5 -65t-67.5 -23h-2q-92 0 -92 88v12h77v-8q0 -25 15 -25h1q16 0 16 25v8h76z" />
    <glyph glyph-name="abreve.alt2" 
d="M145 82q13 0 13 17v337q0 18 -13 18q-11 0 -11 -17v-338q0 -17 11 -17zM158 538h123v-538h-123v43q-35 -50 -74 -50h-3q-32 0 -52 27t-20 66v370q0 37 18.5 61t48.5 24h4q18 0 33 -7t23.5 -14.5t21.5 -23.5v42zM233 650v-12q0 -42 -23.5 -65t-67.5 -23h-2q-92 0 -92 88
v12h77v-8q0 -25 15 -25h1q16 0 16 25v8h76z" />
    <glyph glyph-name="acircumflex.alt" horiz-adv-x="273" 
d="M185 668l48 -113h-83l-15 51l-15 -51h-83l48 113h100zM145 93v181q-13 -8 -17 -15t-4 -21v-145q0 -14 11 -14q10 0 10 14zM146 44q-28 -49 -75 -49h-2q-29 0 -45.5 21.5t-16.5 51.5v167q0 57 50 81q29 14 79 33q9 5 9 14v91q0 13 -11 13h-1q-11 0 -11 -13v-102h-111v103
q0 91 116 91h13q61 0 92.5 -20.5t31.5 -69.5v-366q0 -74 6 -86v-4h-118q-6 10 -6 44z" />
    <glyph glyph-name="acircumflex.alt2" 
d="M193 668l48 -116h-83l-16 54l-15 -54h-82l47 116h101zM145 82q13 0 13 17v337q0 18 -13 18q-11 0 -11 -17v-338q0 -17 11 -17zM158 538h123v-538h-123v43q-35 -50 -74 -50h-3q-32 0 -52 27t-20 66v370q0 37 18.5 61t48.5 24h4q18 0 33 -7t23.5 -14.5t21.5 -23.5v42z" />
    <glyph glyph-name="adieresis.alt" horiz-adv-x="273" 
d="M231 650v-95h-89v95h89zM127 650v-95h-89v95h89zM145 93v181q-13 -8 -17 -15t-4 -21v-145q0 -14 11 -14q10 0 10 14zM146 44q-28 -49 -75 -49h-2q-29 0 -45.5 21.5t-16.5 51.5v167q0 57 50 81q29 14 79 33q9 5 9 14v91q0 13 -11 13h-1q-11 0 -11 -13v-102h-111v103
q0 91 116 91h13q61 0 92.5 -20.5t31.5 -69.5v-366q0 -74 6 -86v-4h-118q-6 10 -6 44z" />
    <glyph glyph-name="adieresis.alt2" 
d="M241 647v-95h-89v95h89zM137 647v-95h-89v95h89zM145 82q13 0 13 17v337q0 18 -13 18q-11 0 -11 -17v-338q0 -17 11 -17zM158 538h123v-538h-123v43q-35 -50 -74 -50h-3q-32 0 -52 27t-20 66v370q0 37 18.5 61t48.5 24h4q18 0 33 -7t23.5 -14.5t21.5 -23.5v42z" />
    <glyph glyph-name="agrave.alt" horiz-adv-x="273" 
d="M149 668l33 -113h-95l-37 113h99zM145 93v181q-13 -8 -17 -15t-4 -21v-145q0 -14 11 -14q10 0 10 14zM146 44q-28 -49 -75 -49h-2q-29 0 -45.5 21.5t-16.5 51.5v167q0 57 50 81q29 14 79 33q9 5 9 14v91q0 13 -11 13h-1q-11 0 -11 -13v-102h-111v103q0 91 116 91h13
q61 0 92.5 -20.5t31.5 -69.5v-366q0 -74 6 -86v-4h-118q-6 10 -6 44z" />
    <glyph glyph-name="agrave.alt2" 
d="M145 82q13 0 13 17v337q0 18 -13 18q-11 0 -11 -17v-338q0 -17 11 -17zM158 538h123v-538h-123v43q-35 -50 -74 -50h-3q-32 0 -52 27t-20 66v370q0 37 18.5 61t48.5 24h4q18 0 33 -7t23.5 -14.5t21.5 -23.5v42zM156 668l34 -116h-96l-37 116h99z" />
    <glyph glyph-name="amacron.alt" horiz-adv-x="273" 
d="M145 93v181q-13 -8 -17 -15t-4 -21v-145q0 -14 11 -14q10 0 10 14zM146 44q-28 -49 -75 -49h-2q-29 0 -45.5 21.5t-16.5 51.5v167q0 57 50 81q29 14 79 33q9 5 9 14v91q0 13 -11 13h-1q-11 0 -11 -13v-102h-111v103q0 91 116 91h13q61 0 92.5 -20.5t31.5 -69.5v-366
q0 -74 6 -86v-4h-118q-6 10 -6 44zM55 560v78h165v-78h-165z" />
    <glyph glyph-name="amacron.alt2" 
d="M61 557v78h165v-78h-165zM145 82q13 0 13 17v337q0 18 -13 18q-11 0 -11 -17v-338q0 -17 11 -17zM158 538h123v-538h-123v43q-35 -50 -74 -50h-3q-32 0 -52 27t-20 66v370q0 37 18.5 61t48.5 24h4q18 0 33 -7t23.5 -14.5t21.5 -23.5v42z" />
    <glyph glyph-name="aogonek.alt" horiz-adv-x="273" 
d="M145 93v181q-13 -8 -17 -15t-4 -21v-145q0 -14 11 -14q10 0 10 14zM146 44q-28 -49 -75 -49h-2q-29 0 -45.5 21.5t-16.5 51.5v167q0 57 50 81q29 14 79 33q9 5 9 14v91q0 13 -11 13h-1q-11 0 -11 -13v-102h-111v103q0 91 116 91h13q61 0 92.5 -20.5t31.5 -69.5v-366
q0 -74 6 -86v-4h-118q-6 10 -6 44zM156 -110v6q0 50 63 104h51q-27 -34 -27 -74v-2q0 -23 20 -23h7v-68h-42q-31 0 -51.5 14.5t-20.5 42.5z" />
    <glyph glyph-name="aogonek.alt2" 
d="M167 -110v6q0 50 63 104h51q-27 -34 -27 -74v-2q0 -23 20 -23h7v-68h-42q-31 0 -51.5 14.5t-20.5 42.5zM145 82q13 0 13 17v337q0 18 -13 18q-11 0 -11 -17v-338q0 -17 11 -17zM158 538h123v-538h-123v43q-35 -50 -74 -50h-3q-32 0 -52 27t-20 66v370q0 37 18.5 61
t48.5 24h4q18 0 33 -7t23.5 -14.5t21.5 -23.5v42z" />
    <glyph glyph-name="aring.alt" horiz-adv-x="273" 
d="M199 617q0 -28 -18.5 -45.5t-46.5 -17.5t-47 18t-19 45t19 44.5t47 17.5t46.5 -17.5t18.5 -44.5zM108 617q0 -12 7.5 -19t18.5 -7q25 0 25 26q0 25 -25 25q-11 0 -18.5 -7t-7.5 -18zM145 93v181q-13 -8 -17 -15t-4 -21v-145q0 -14 11 -14q10 0 10 14zM146 44
q-28 -49 -75 -49h-2q-29 0 -45.5 21.5t-16.5 51.5v167q0 57 50 81q29 14 79 33q9 5 9 14v91q0 13 -11 13h-1q-11 0 -11 -13v-102h-111v103q0 91 116 91h13q61 0 92.5 -20.5t31.5 -69.5v-366q0 -74 6 -86v-4h-118q-6 10 -6 44z" />
    <glyph glyph-name="aring.alt2" 
d="M202 613q0 -28 -18.5 -45.5t-46.5 -17.5t-47 18t-19 45t19 44.5t47 17.5t46.5 -17.5t18.5 -44.5zM111 613q0 -12 7.5 -19t18.5 -7q25 0 25 26q0 25 -25 25q-11 0 -18.5 -7t-7.5 -18zM145 82q13 0 13 17v337q0 18 -13 18q-11 0 -11 -17v-338q0 -17 11 -17zM158 538h123
v-538h-123v43q-35 -50 -74 -50h-3q-32 0 -52 27t-20 66v370q0 37 18.5 61t48.5 24h4q18 0 33 -7t23.5 -14.5t21.5 -23.5v42z" />
    <glyph glyph-name="aringacute.alt" horiz-adv-x="273" 
d="M87 687l35 116h99l-38 -116h-96zM199 617q0 -28 -18.5 -45.5t-46.5 -17.5t-47 18t-19 45t19 44.5t47 17.5t46.5 -17.5t18.5 -44.5zM108 617q0 -12 7.5 -19t18.5 -7q25 0 25 26q0 25 -25 25q-11 0 -18.5 -7t-7.5 -18zM145 93v181q-13 -8 -17 -15t-4 -21v-145q0 -14 11 -14
q10 0 10 14zM146 44q-28 -49 -75 -49h-2q-29 0 -45.5 21.5t-16.5 51.5v167q0 57 50 81q29 14 79 33q9 5 9 14v91q0 13 -11 13h-1q-11 0 -11 -13v-102h-111v103q0 91 116 91h13q61 0 92.5 -20.5t31.5 -69.5v-366q0 -74 6 -86v-4h-118q-6 10 -6 44z" />
    <glyph glyph-name="aringacute.alt2" 
d="M90 684l35 116h99l-38 -116h-96zM201 613q0 -28 -18.5 -45.5t-46.5 -17.5t-47 18t-19 45t19 44.5t47 17.5t46.5 -17.5t18.5 -44.5zM110 613q0 -12 7.5 -19t18.5 -7q25 0 25 26q0 25 -25 25q-11 0 -18.5 -7t-7.5 -18zM145 82q13 0 13 17v337q0 18 -13 18q-11 0 -11 -17
v-338q0 -17 11 -17zM158 538h123v-538h-123v43q-35 -50 -74 -50h-3q-32 0 -52 27t-20 66v370q0 37 18.5 61t48.5 24h4q18 0 33 -7t23.5 -14.5t21.5 -23.5v42z" />
    <glyph glyph-name="atilde.alt" horiz-adv-x="273" 
d="M145 93v181q-13 -8 -17 -15t-4 -21v-145q0 -14 11 -14q10 0 10 14zM146 44q-28 -49 -75 -49h-2q-29 0 -45.5 21.5t-16.5 51.5v167q0 57 50 81q29 14 79 33q9 5 9 14v91q0 13 -11 13h-1q-11 0 -11 -13v-102h-111v103q0 91 116 91h13q61 0 92.5 -20.5t31.5 -69.5v-366
q0 -74 6 -86v-4h-118q-6 10 -6 44zM162 660h65v-53q0 -50 -45 -50h-2q-20 0 -46 15q-16 10 -21 10t-5 -8v-19h-66v53q0 23 12 36.5t34 13.5h2q19 0 45 -14q17 -11 22 -11t5 8v19z" />
    <glyph glyph-name="atilde.alt2" 
d="M145 82q13 0 13 17v337q0 18 -13 18q-11 0 -11 -17v-338q0 -17 11 -17zM158 538h123v-538h-123v43q-35 -50 -74 -50h-3q-32 0 -52 27t-20 66v370q0 37 18.5 61t48.5 24h4q18 0 33 -7t23.5 -14.5t21.5 -23.5v42zM172 656h65v-53q0 -50 -45 -50h-2q-20 0 -46 15
q-16 10 -21 10t-5 -8v-19h-66v53q0 23 12 36.5t34 13.5h2q19 0 45 -14q17 -11 22 -11t5 8v19z" />
    <glyph glyph-name="racute.alt" horiz-adv-x="222" 
d="M72 552l35 116h99l-38 -116h-96zM131 538v-60q19 63 61 63h3q12 0 21 -3v-139q-12 5 -38 5h-5q-41 0 -41 -30v-374h-123v538h122z" />
    <glyph glyph-name="rcaron.alt" horiz-adv-x="222" 
d="M68 552l-48 116h82l15 -54l16 54h82l-47 -116h-100zM131 538v-60q19 63 61 63h3q12 0 21 -3v-139q-12 5 -38 5h-5q-41 0 -41 -30v-374h-123v538h122z" />
    <glyph glyph-name="rcommaaccent.alt" horiz-adv-x="222" 
d="M103 -162h-53q10 28 12 57h-40v91h98v-66q0 -46 -17 -82zM131 538v-60q19 63 61 63h3q12 0 21 -3v-139q-12 5 -38 5h-5q-41 0 -41 -30v-374h-123v538h122z" />
    <glyph glyph-name="space_uni0326.alt" horiz-adv-x="219" 
d="M78 700h53q-10 -28 -12 -57h40v-91h-98v66q0 46 17 82z" />
    <glyph glyph-name="ordfeminine.alt" horiz-adv-x="172" 
d="M78 567v-77q0 -8 7 -8t7 9v97q-14 -6 -14 -21zM92 461q-18 -29 -45 -29h-2q-18 0 -28 12.5t-10 31.5v89q0 34 32 49q4 2 47 18q6 2 6 9v51q0 8 -8 8q-7 0 -7 -8v-57h-67v60q0 53 70 53h8q39 0 57.5 -12t18.5 -41v-224q0 -26 4 -33v-3h-72q-4 5 -4 26z" />
    <glyph glyph-name="ordfeminine.alt2" horiz-adv-x="181" 
d="M91 483q8 0 8 11v189q0 11 -8 11q-7 0 -7 -11v-189q0 -11 7 -11zM99 744h74v-309h-74v26q-21 -29 -46 -29h-1q-20 0 -32 15.5t-12 37.5v211q0 22 11 36t30 14h2q27 0 48 -28v26z" />
    <glyph glyph-name="emdash.alt" horiz-adv-x="831" 
d="M9 340h813v-78h-813v78z" />
    <glyph glyph-name="caron.alt" horiz-adv-x="219" 
d="M66 624l4 120h82l-8 -120h-78z" />
    <glyph glyph-name="plus.uc" horiz-adv-x="232" 
d="M223 306h-68v-75h-78v75h-68v72h68v75h78v-75h68v-72z" />
    <glyph glyph-name="minus.uc" horiz-adv-x="225" 
d="M9 378h207v-72h-207v72z" />
    <glyph glyph-name="multiply.uc" horiz-adv-x="216" 
d="M160 240l-52 52l-52 -52l-50 50l52 53l-52 52l50 51l52 -53l52 53l50 -51l-52 -52l52 -53z" />
    <glyph glyph-name="divide.uc" horiz-adv-x="232" 
d="M155 468v-78h-78v78h78zM9 378h214v-72h-214v72zM155 294v-78h-78v78h78z" />
    <glyph glyph-name="equal.uc" horiz-adv-x="228" 
d="M10 415h208v-66h-208v66zM10 336h208v-67h-208v67z" />
    <glyph glyph-name="less.uc" horiz-adv-x="201" 
d="M191 233l-182 72v73l182 72v-81l-94 -28l94 -27v-81z" />
    <glyph glyph-name="greater.uc" horiz-adv-x="201" 
d="M10 233v81l94 27l-94 28v81l182 -72v-73z" />
    <glyph glyph-name="questiondown.uc" horiz-adv-x="274" 
d="M101 599h93v-130q0 -52 -22 -96l-33 -67q-11 -21 -11 -61v-139q0 -17 12 -17q8 0 9.5 3.5t1.5 13.5v180h113v-180q0 -111 -115 -111h-24q-119 0 -119 109v130q0 39 6 62.5t24 53.5l44 72q21 35 21 75v102zM94 615v129h107v-129h-107z" />
    <glyph glyph-name="exclamdown.uc" horiz-adv-x="143" 
d="M137 0h-131q0 16 15.5 275.5t15.5 322.5h68q0 -62 16 -322.5t16 -275.5zM125 744v-129h-108v129h108z" />
    <glyph glyph-name="hyphen.uc" horiz-adv-x="144" 
d="M9 399h126v-114h-126v114z" />
    <glyph glyph-name="endash.uc" horiz-adv-x="281" 
d="M9 382h263v-78h-263v78z" />
    <glyph glyph-name="emdash.uc" horiz-adv-x="424" 
d="M9 382h406v-78h-406v78z" />
    <glyph glyph-name="guilsinglleft.uc" horiz-adv-x="138" 
d="M100 300l31 -150h-92l-32 127v47l32 123h93z" />
    <glyph glyph-name="guilsinglright.uc" horiz-adv-x="138" 
d="M38 300l-32 147h92l33 -123v-47l-33 -127h-91z" />
    <glyph glyph-name="guillemotleft.uc" horiz-adv-x="236" 
d="M198 300l30 -150h-86l-36 150l37 147h87zM93 300l36 -150h-87l-35 127v47l35 123h88z" />
    <glyph glyph-name="guillemotright.uc" horiz-adv-x="236" 
d="M7 150l31 149l-32 148h87l36 -148l-35 -149h-87zM106 150l36 149l-36 148h87l36 -124v-47l-36 -126h-87z" />
    <glyph glyph-name="parenleft.uc" horiz-adv-x="154" 
d="M10 366v7q0 214 75 433h70q-43 -207 -43 -435q0 -227 43 -442h-70q-75 208 -75 437z" />
    <glyph glyph-name="parenright.uc" horiz-adv-x="155" 
d="M145 373v-7q0 -229 -75 -437h-71q43 215 43 442q0 233 -42 435h70q75 -219 75 -433z" />
    <glyph glyph-name="bracketleft.uc" horiz-adv-x="147" 
d="M10 -70v876h131v-84h-35v-710h35v-82h-131z" />
    <glyph glyph-name="bracketright.uc" horiz-adv-x="147" 
d="M6 -70v82h35v710h-35v84h131v-876h-131z" />
    <glyph glyph-name="braceleft.uc" horiz-adv-x="158" 
d="M152 -70h-53q-80 0 -80 72q0 14 10 146t10 152q0 28 -25 28h-9v79h13q13 0 17 6t4 19q0 23 -10 151t-10 147q0 76 80 76h53v-80h-19q-22 0 -22 -21q0 -11 10 -134t10 -138q0 -54 -48 -66q48 -15 48 -63q0 -15 -10 -137.5t-10 -136.5q0 -22 23 -22h18v-78z" />
    <glyph glyph-name="braceright.uc" horiz-adv-x="157" 
d="M58 -70h-52v78h18q23 0 23 22q0 14 -10 136.5t-10 137.5q0 48 47 63q-47 12 -47 66q0 15 10 138t10 134q0 21 -23 21h-18v80h52q81 0 81 -76q0 -19 -10 -147t-10 -151q0 -25 20 -25h13v-79h-9q-24 0 -24 -28q0 -20 10 -152t10 -146q0 -72 -81 -72z" />
    <glyph glyph-name="slash.uc" horiz-adv-x="167" 
d="M169 806l-90 -877h-82l90 877h82z" />
    <glyph glyph-name="backslash.uc" horiz-adv-x="167" 
d="M88 -71l-90 877h83l89 -877h-82z" />
    <glyph glyph-name="bar.uc" horiz-adv-x="143" 
d="M111 806v-877h-79v877h79z" />
    <glyph glyph-name="at.uc" horiz-adv-x="460" 
d="M228 -48q-30 0 -57 5.5t-57.5 22.5t-52.5 43.5t-36.5 73.5t-14.5 109v302q0 118 60.5 187.5t163.5 69.5h1q98 0 156.5 -53t58.5 -164v-267q0 -108 -31.5 -148.5t-85.5 -40.5h-13q-57 0 -76 46q-31 -46 -69 -46h-2q-33 0 -52.5 25t-17.5 64l8 358q2 36 19 55.5t43 19.5h3
q41 0 71 -42l1 40h113l-14 -444q0 -16 9 -16q27 0 27 129v265q0 91 -40 127t-108 36h-1q-70 0 -112.5 -50.5t-42.5 -151.5v-301q0 -61 14.5 -102.5t39 -60.5t47 -26t48.5 -7q77 0 129 72l40 -38q-20 -36 -63 -64t-106 -28zM236 180l8 344q1 16 -10 16q-9 0 -9 -16l-8 -343
q-1 -15 9 -15q8 0 10 14z" />
    <glyph glyph-name="grave.uc" horiz-adv-x="219" 
d="M143 853l35 -95h-99l-38 95h102z" />
    <glyph glyph-name="dieresis.uc" horiz-adv-x="219" 
d="M102 851v-93h-89v93h89zM207 851v-93h-90v93h90z" />
    <glyph glyph-name="macron.uc" horiz-adv-x="219" 
d="M27 762v77h165v-77h-165z" />
    <glyph glyph-name="acute.uc" horiz-adv-x="219" 
d="M41 758l37 95h102l-40 -95h-99z" />
    <glyph glyph-name="circumflex.uc" horiz-adv-x="219" 
d="M161 853l50 -95h-85l-17 37l-16 -37h-85l50 95h103z" />
    <glyph glyph-name="caron.uc" horiz-adv-x="219" 
d="M58 758l-50 95h85l16 -38l17 38h85l-50 -95h-103z" />
    <glyph glyph-name="breve.uc" horiz-adv-x="219" 
d="M202 849v-9q0 -37 -24 -61t-67 -24h-3q-44 0 -67.5 24t-23.5 61v9h77v-8q0 -19 15 -19h1q16 0 16 19v8h76z" />
    <glyph glyph-name="dotaccent.uc" horiz-adv-x="219" 
d="M171 866v-108h-123v108h123z" />
    <glyph glyph-name="ring.uc" horiz-adv-x="219" 
d="M44 818q0 27 19 44.5t47 17.5t46.5 -17.5t18.5 -44.5q0 -29 -18.5 -46t-46.5 -17t-47 17t-19 46zM110 843q-11 0 -18.5 -7.5t-7.5 -18.5t7.5 -18.5t18.5 -7.5t18 7.5t7 18.5t-7 18.5t-18 7.5z" />
    <glyph glyph-name="tilde.uc" horiz-adv-x="219" 
d="M110 839q21 -8 24 -8q5 0 5 8v16h65v-44q0 -52 -43 -52h-2q-17 0 -49 13q-6 2 -11.5 4t-8 3t-4.5 1q-6 0 -6 -8v-15h-64v46q0 50 44 50h1q14 0 49 -14z" />
    <glyph glyph-name="hungarumlaut.uc" horiz-adv-x="219" 
d="M104 758l26 95h85l-28 -95h-83zM6 758l25 95h84l-26 -95h-83z" />
    <glyph glyph-name="emdash.altuc" horiz-adv-x="831" 
d="M9 382h813v-78h-813v78z" />
    <glyph glyph-name="f.short" horiz-adv-x="208" 
d="M203 744v-97h-25q-11 0 -11 -12v-97h35v-100h-35v-438h-123v438h-39v100h39v140q0 32 19 49t46 17h94z" />
    <glyph glyph-name="f_f.short" horiz-adv-x="375" 
d="M167 0h-123v438h-39v100h39v140q0 32 19 49t46 17h92v-97h-23q-11 0 -11 -12v-97h44v140q0 32 19 49t46 17h94v-97h-24q-11 0 -11 -12v-97h35v-100h-35v-438h-124v438h-44v-438z" />
    <glyph glyph-name="j.short" horiz-adv-x="141" 
d="M132 668v-116h-123v116h123zM-14 -61h12q11 0 11 11v588h123v-647q0 -28 -15.5 -43t-38.5 -15h-92v106z" />
    </font>
</defs>
</svg>
