<svg xmlns="http://www.w3.org/2000/svg" viewBox="0 0 30.103 30.103"><path d="M23.281 10.448c0 3.957-.006 7.917.004 11.875.002.694-.352 1.146-.904 1.483a.973.973 0 0 1-.518.131c-.524-.004-1.051-.002-1.574-.002h-.27c-.012.056-.023.099-.025.142-.006.072-.002.143-.002.213 0 1.277-.002 2.555 0 3.832a2.12 2.12 0 0 1-.24 1.018 1.83 1.83 0 0 1-.566.65 1.634 1.634 0 0 1-2.006-.068 1.892 1.892 0 0 1-.671-1.152 2.878 2.878 0 0 1-.042-.49c-.004-1.284-.002-2.569-.002-3.856 0-.084-.004-.168-.008-.274h-2.79c-.01.047-.023.09-.025.133-.005.07-.002.143-.002.213v3.855c.001.352-.075.684-.238.993-.125.24-.293.445-.508.609a1.63 1.63 0 0 1-2.08-.048 1.906 1.906 0 0 1-.656-1.188 3.171 3.171 0 0 1-.035-.467c-.002-1.271 0-2.541-.002-3.812 0-.092.01-.186-.018-.289-.082-.004-.158-.012-.234-.012-.525 0-1.051-.006-1.576.004a1.21 1.21 0 0 1-.744-.242 1.885 1.885 0 0 1-.535-.586 1.3 1.3 0 0 1-.191-.692c.004-.688.001-1.379.001-2.068v-9.898-.291c.054-.012.097-.028.141-.03.062-.006.125-.002.188-.002h15.8c.102 0 .201-.015.312.02.006.049.014.094.018.139l-.002.157zM6.942 9.175c-.067-.076-.046-.148-.045-.217a6.603 6.603 0 0 1 .564-2.505c.602-1.364 1.55-2.438 2.786-3.26.228-.151.47-.281.706-.42l.207-.115c-.047-.086-.082-.155-.121-.223L9.856.375C9.826.32 9.793.269 9.769.209 9.74.135 9.765.07 9.832.027c.063-.043.137-.035.188.031.043.055.078.117.113.178l1.189 2.053c.043.074.089.146.138.229.06-.021.111-.035.16-.058a8.797 8.797 0 0 1 4.254-.645 8.869 8.869 0 0 1 2.609.646c.051.021.103.035.159.056.046-.072.089-.14.128-.205l1.2-2.074c.032-.053.062-.108.101-.16.059-.077.135-.096.203-.051.075.047.098.115.057.201-.03.063-.066.125-.104.188a968.335 968.335 0 0 0-1.273 2.223c.047.078.127.098.191.131a8.073 8.073 0 0 1 2.014 1.494c.957.979 1.605 2.133 1.902 3.477.09.406.133.818.154 1.234.004.055.001.107.001.174-.054.01-.097.023-.142.025-.062.006-.125.002-.188.002H7.229l-.287-.001zM18.16 5.737a.77.77 0 0 0 .773.75.76.76 0 0 0 .775-.771.761.761 0 0 0-.784-.766c-.49.006-.768.41-.764.787zm-7.764-.016c0 .418.338.76.761.766a.766.766 0 0 0 .79-.758c.002-.426-.347-.789-.771-.781a.774.774 0 0 0-.78.773zm-4.52 6.248c0-.086.003-.172-.003-.258-.039-.609-.273-1.123-.762-1.502a1.622 1.622 0 0 0-1.986-.005 1.893 1.893 0 0 0-.633.857c-.099.26-.139.528-.139.807.002 2.412.001 4.826.001 7.238 0 .047-.001.094.001.141.035.563.238 1.052.664 1.433.642.57 1.568.562 2.205-.012.2-.181.355-.396.465-.642.131-.291.188-.598.188-.914-.002-1.205-.001-2.412-.001-3.619v-3.524zm21.872 3.52V11.94c0-.094.005-.188-.004-.281-.049-.592-.285-1.088-.764-1.451a1.613 1.613 0 0 0-2.021.031 1.923 1.923 0 0 0-.646.986 2.482 2.482 0 0 0-.088.697l.001 7.12c0 .055-.002.108.001.163.024.537.2 1.013.586 1.396a1.635 1.635 0 0 0 2.307.045c.187-.173.332-.375.438-.604.134-.289.191-.593.19-.912-.002-1.213 0-2.429 0-3.641z"/></svg>
