<svg viewBox="0 0 42 42" xmlns="http://www.w3.org/2000/svg"><g transform="translate(3 3)" fill="none" fill-rule="evenodd"><path d="M23.944 5H12.056C10.918 5 10 5.882 10 6.967v23.068C10 31.12 10.918 32 12.056 32h11.888C25.08 32 26 31.12 26 30.035V6.967C26 5.882 25.08 5 23.944 5zm-8.877 1.194h5.868c.149 0 .27.212.27.474 0 .261-.121.474-.27.474h-5.868c-.15 0-.268-.213-.268-.474 0-.262.118-.474.268-.474zM18 30.06c-.724 0-1.313-.563-1.313-1.256 0-.692.59-1.253 1.313-1.253.722 0 1.31.56 1.31 1.253 0 .693-.588 1.256-1.31 1.256zm6.459-4.299H11.54V8.32H24.46V25.76z" fill="#2000FF" fill-rule="nonzero"/><circle stroke="#2000FF" stroke-width="2" cx="18.5" cy="18.5" r="18.5"/></g></svg>
